<svg xmlns="http://www.w3.org/2000/svg" width="1536" height="1024" viewBox="0 0 1536 1024" shape-rendering="geometricPrecision">
<rect width="100%" height="100%" fill="white"/>
<g fill="black" fill-rule="evenodd" stroke="none">
<path d="M 476 767 L 467 770 L 461 778 L 461 785 L 464 789 L 470 792 L 474 792 L 482 789 L 485 786 L 488 779 L 487 774 L 484 771 L 482 771 L 480 773 L 482 776 L 481 781 L 475 785 L 469 784 L 467 782 L 467 779 L 472 775 L 473 772 L 475 772 L 477 770 Z"/>
<path d="M 1011 738 L 1011 741 L 1016 745 L 1021 745 L 1023 743 L 1022 741 L 1020 741 L 1014 737 Z"/>
<path d="M 501 737 L 499 738 L 499 740 L 501 739 Z"/>
<path d="M 516 732 L 513 733 L 514 735 L 513 739 L 515 740 Z"/>
<path d="M 632 703 L 628 703 L 622 707 L 621 713 L 623 715 L 631 714 L 634 711 L 635 707 Z M 626 709 L 628 707 L 630 708 L 628 710 Z"/>
<path d="M 1011 702 L 1004 699 L 999 702 L 996 702 L 994 704 L 994 707 L 998 708 L 1005 703 L 1009 705 Z"/>
<path d="M 616 690 L 614 690 L 608 694 L 608 697 L 610 699 L 614 698 L 618 694 L 618 692 Z"/>
<path d="M 572 684 L 568 682 L 563 682 L 561 680 L 555 680 L 551 681 L 545 685 L 539 685 L 534 689 L 534 692 L 527 702 L 527 713 L 529 717 L 534 722 L 544 726 L 556 725 L 562 723 L 570 718 L 577 710 L 579 705 L 579 695 L 576 688 Z M 550 717 L 551 716 L 555 717 L 554 718 Z M 554 716 L 555 715 L 558 716 L 557 717 Z M 557 715 L 558 714 L 560 715 L 559 716 Z M 559 714 L 560 713 L 561 714 L 560 715 Z M 571 692 L 572 702 L 568 708 L 566 701 L 563 701 L 562 706 L 555 712 L 546 712 L 544 710 L 544 708 L 541 708 L 542 711 L 541 716 L 539 716 L 535 713 L 533 709 L 534 702 L 538 698 L 537 693 L 543 688 L 545 691 L 549 691 L 551 687 L 559 685 L 562 687 L 567 688 Z"/>
<path d="M 1106 680 L 1102 678 L 1093 683 L 1093 686 L 1097 687 L 1101 684 L 1105 684 Z"/>
<path d="M 1053 654 L 1051 653 L 1049 654 L 1049 656 L 1052 656 Z"/>
<path d="M 374 641 L 370 640 L 363 644 L 361 648 L 361 651 L 363 654 L 370 655 L 375 652 L 377 649 L 377 645 Z M 370 645 L 371 648 L 369 650 L 367 650 L 366 648 Z"/>
<path d="M 468 640 L 467 639 L 462 640 L 459 643 L 459 645 L 460 646 L 466 645 L 468 643 Z"/>
<path d="M 756 629 L 755 628 L 751 630 L 742 639 L 730 647 L 727 650 L 727 652 L 733 651 L 741 646 L 753 635 Z"/>
<path d="M 1011 627 L 1007 626 L 1003 629 L 998 639 L 992 657 L 992 660 L 985 674 L 962 700 L 962 705 L 964 707 L 973 707 L 977 705 L 979 706 L 970 717 L 959 726 L 949 732 L 944 738 L 944 741 L 947 744 L 956 744 L 963 742 L 967 743 L 952 759 L 932 772 L 924 780 L 925 785 L 930 787 L 937 787 L 950 783 L 951 784 L 950 788 L 952 790 L 959 792 L 966 792 L 970 790 L 980 788 L 990 782 L 992 785 L 994 785 L 1000 780 L 1003 788 L 1008 792 L 1012 792 L 1018 789 L 1024 783 L 1040 790 L 1046 790 L 1049 789 L 1053 784 L 1052 781 L 1053 780 L 1062 781 L 1069 778 L 1069 772 L 1067 769 L 1059 762 L 1053 759 L 1043 749 L 1039 743 L 1040 742 L 1050 742 L 1053 740 L 1054 737 L 1051 730 L 1035 716 L 1027 705 L 1028 704 L 1039 704 L 1042 701 L 1042 697 L 1037 687 L 1028 676 L 1023 666 L 1022 658 L 1018 650 L 1018 646 L 1013 632 L 1013 629 Z M 966 742 L 967 741 L 968 742 L 967 743 Z M 979 738 L 980 737 L 981 738 L 980 739 Z M 1008 633 L 1011 641 L 1012 649 L 1017 660 L 1018 670 L 1022 678 L 1035 697 L 1031 699 L 1027 698 L 1019 693 L 1017 693 L 1015 695 L 1015 697 L 1021 703 L 1023 709 L 1031 721 L 1045 734 L 1044 736 L 1039 736 L 1032 734 L 1027 731 L 1024 731 L 1022 733 L 1022 735 L 1031 742 L 1038 753 L 1047 762 L 1054 766 L 1061 773 L 1056 775 L 1048 773 L 1045 771 L 1042 771 L 1040 773 L 1040 775 L 1045 781 L 1044 783 L 1036 782 L 1032 780 L 1026 774 L 1022 774 L 1019 779 L 1011 786 L 1006 782 L 1005 780 L 1006 777 L 1002 773 L 992 779 L 987 778 L 982 781 L 969 785 L 960 785 L 959 784 L 965 778 L 964 773 L 960 773 L 949 778 L 936 780 L 935 779 L 956 764 L 968 752 L 979 738 L 980 739 L 979 745 L 982 747 L 986 747 L 997 743 L 1004 737 L 1003 735 L 1000 735 L 991 740 L 986 741 L 985 739 L 987 735 L 987 731 L 984 729 L 966 736 L 958 738 L 954 737 L 970 726 L 979 717 L 993 697 L 990 693 L 974 701 L 970 700 L 987 682 L 993 673 L 998 661 L 998 657 L 1001 651 L 1003 642 Z"/>
<path d="M 1102 614 L 1098 618 L 1094 626 L 1090 644 L 1083 659 L 1067 676 L 1064 681 L 1065 684 L 1069 687 L 1078 685 L 1080 686 L 1073 697 L 1052 714 L 1052 719 L 1056 722 L 1066 721 L 1067 722 L 1058 729 L 1055 733 L 1057 735 L 1063 734 L 1083 715 L 1083 712 L 1080 710 L 1068 715 L 1063 714 L 1074 705 L 1082 695 L 1092 678 L 1091 675 L 1088 674 L 1077 680 L 1073 679 L 1083 669 L 1090 659 L 1096 644 L 1096 640 L 1099 633 L 1100 627 L 1104 621 L 1106 625 L 1106 629 L 1109 639 L 1114 647 L 1117 655 L 1124 665 L 1129 676 L 1128 677 L 1122 677 L 1115 672 L 1111 676 L 1118 684 L 1125 695 L 1135 705 L 1141 713 L 1140 714 L 1132 714 L 1124 710 L 1120 713 L 1122 718 L 1121 720 L 1116 720 L 1107 713 L 1099 715 L 1091 720 L 1088 720 L 1086 723 L 1088 725 L 1093 725 L 1104 718 L 1112 724 L 1121 725 L 1123 723 L 1123 719 L 1127 718 L 1140 735 L 1163 755 L 1161 757 L 1157 757 L 1146 752 L 1143 755 L 1145 759 L 1140 760 L 1133 757 L 1128 752 L 1125 752 L 1123 754 L 1122 761 L 1119 764 L 1115 764 L 1106 753 L 1102 753 L 1090 759 L 1080 761 L 1079 765 L 1085 766 L 1097 761 L 1100 766 L 1106 763 L 1110 768 L 1114 770 L 1120 770 L 1126 765 L 1128 761 L 1139 766 L 1152 766 L 1155 763 L 1168 762 L 1171 759 L 1171 756 L 1168 750 L 1160 743 L 1154 740 L 1141 727 L 1137 721 L 1146 719 L 1148 716 L 1148 712 L 1142 703 L 1134 696 L 1125 685 L 1133 683 L 1136 680 L 1136 677 L 1129 661 L 1126 658 L 1114 637 L 1109 617 L 1106 614 Z M 1061 715 L 1062 714 L 1064 715 L 1063 716 Z"/>
<path d="M 433 604 L 433 607 L 436 611 L 444 614 L 452 612 L 455 609 L 453 607 L 449 609 L 442 609 L 437 605 L 437 603 Z"/>
<path d="M 714 588 L 715 588 Z"/>
<path d="M 710 588 L 709 589 Z"/>
<path d="M 467 572 L 463 571 L 453 572 L 449 569 L 446 569 L 436 574 L 433 574 L 429 577 L 423 586 L 417 602 L 418 610 L 421 615 L 424 618 L 432 622 L 439 624 L 447 624 L 458 621 L 470 614 L 474 610 L 478 601 L 479 591 L 477 582 Z M 464 606 L 465 605 L 466 606 L 465 607 Z M 470 596 L 471 599 L 466 606 L 465 602 L 467 598 Z M 464 577 L 470 583 L 472 587 L 466 594 L 462 593 L 461 595 L 462 600 L 457 608 L 457 611 L 454 614 L 446 617 L 436 616 L 429 613 L 426 610 L 424 605 L 424 600 L 430 589 L 429 585 L 435 578 L 447 573 L 449 573 L 452 577 L 458 577 L 459 576 Z"/>
<path d="M 523 563 L 521 562 L 517 563 L 515 565 L 515 568 L 517 570 L 519 570 L 523 566 Z"/>
<path d="M 958 524 L 954 528 Z"/>
<path d="M 610 513 L 611 514 Z"/>
<path d="M 908 512 L 906 512 L 900 519 L 902 520 L 908 514 Z"/>
<path d="M 508 499 L 506 504 L 509 508 L 511 508 L 512 505 L 510 503 L 510 500 Z"/>
<path d="M 595 491 L 590 490 L 583 492 L 580 497 L 580 502 L 583 505 L 591 505 L 594 503 L 597 499 L 597 494 Z M 585 499 L 588 495 L 591 496 L 590 499 L 588 500 Z"/>
<path d="M 745 484 L 742 487 L 741 492 L 739 495 L 739 500 L 741 500 L 745 488 Z"/>
<path d="M 534 481 L 531 480 L 528 482 L 528 484 L 532 485 L 534 484 Z"/>
<path d="M 626 467 L 623 469 L 624 471 L 627 469 Z"/>
<path d="M 532 466 L 525 466 L 518 470 L 510 470 L 506 472 L 499 479 L 497 483 L 497 487 L 493 491 L 490 499 L 491 508 L 497 516 L 503 519 L 507 519 L 510 522 L 515 524 L 522 524 L 538 518 L 549 508 L 553 501 L 554 496 L 554 485 L 552 480 L 544 471 L 540 469 L 536 469 Z M 536 508 L 537 507 L 538 508 L 537 509 Z M 543 479 L 546 485 L 547 493 L 544 502 L 538 508 L 537 507 L 538 502 L 541 498 L 541 493 L 538 488 L 535 489 L 537 495 L 533 504 L 530 507 L 523 508 L 524 510 L 529 510 L 530 511 L 523 516 L 520 517 L 514 516 L 512 513 L 510 512 L 506 513 L 498 507 L 496 500 L 499 493 L 503 489 L 503 481 L 511 474 L 515 473 L 517 475 L 520 475 L 522 473 L 528 471 L 534 475 L 539 475 Z"/>
<path d="M 851 463 L 852 464 Z"/>
<path d="M 613 454 L 611 455 L 611 458 L 613 457 Z"/>
<path d="M 728 452 L 726 452 L 725 454 L 724 464 L 726 463 Z"/>
<path d="M 951 440 L 947 443 L 948 446 L 947 450 L 933 475 L 936 474 L 945 460 L 952 446 L 952 441 Z"/>
<path d="M 550 439 L 548 439 L 546 441 L 547 445 L 552 443 L 552 441 Z"/>
<path d="M 656 433 L 654 434 L 648 433 L 646 435 L 643 435 L 640 438 L 639 448 L 642 451 L 651 452 L 658 448 L 660 444 L 660 437 Z M 652 436 L 655 439 L 655 442 L 648 447 L 644 444 L 644 442 Z"/>
<path d="M 662 408 L 660 410 L 662 412 L 664 412 L 665 410 Z"/>
<path d="M 1007 392 L 1003 392 L 994 396 L 990 394 L 986 394 L 985 396 L 987 398 L 998 399 L 1006 395 Z"/>
<path d="M 786 372 L 787 372 Z"/>
<path d="M 820 370 L 812 372 L 799 372 L 798 371 L 789 372 L 797 375 L 809 376 L 819 372 Z"/>
<path d="M 774 369 L 775 371 L 778 371 Z"/>
<path d="M 869 368 L 871 370 L 878 370 L 882 367 L 875 365 L 871 366 Z"/>
<path d="M 905 365 L 902 364 L 891 368 L 891 370 L 894 371 L 901 369 Z"/>
<path d="M 568 361 L 573 366 L 581 369 L 589 368 L 591 370 L 599 370 L 602 368 L 602 367 L 593 367 L 591 364 L 580 365 L 577 364 L 571 359 L 569 359 Z"/>
<path d="M 631 358 L 627 358 L 613 363 L 612 366 L 617 366 L 624 364 L 631 360 Z"/>
<path d="M 431 339 L 426 349 L 423 362 L 423 375 L 424 376 L 425 386 L 429 395 L 438 405 L 444 407 L 445 405 L 437 398 L 433 392 L 428 379 L 429 378 L 428 377 L 429 355 L 432 345 L 436 339 L 436 336 Z"/>
<path d="M 766 336 L 763 335 L 753 340 L 751 343 L 754 345 L 765 339 Z"/>
<path d="M 485 303 L 481 304 L 476 308 L 469 316 L 461 333 L 454 357 L 454 379 L 455 383 L 461 395 L 469 401 L 470 398 L 464 391 L 459 378 L 460 352 L 469 326 L 473 318 L 485 306 Z"/>
<path d="M 1071 250 L 1071 252 L 1074 254 L 1075 253 L 1081 253 L 1083 251 L 1082 249 Z"/>
<path d="M 790 252 L 795 252 L 798 249 L 793 248 L 790 250 Z"/>
<path d="M 1035 250 L 1037 251 L 1046 251 L 1049 248 L 1048 247 L 1037 247 Z"/>
<path d="M 744 251 L 745 253 L 751 251 L 757 251 L 764 255 L 772 255 L 775 253 L 775 251 L 767 251 L 758 246 L 751 247 Z"/>
<path d="M 1028 242 L 1025 239 L 1019 237 L 1006 238 L 995 241 L 987 245 L 984 248 L 984 250 L 1007 242 L 1017 241 L 1024 244 L 1026 244 Z"/>
<path d="M 754 168 L 749 169 L 744 172 L 734 182 L 730 189 L 728 196 L 728 201 L 730 203 L 732 201 L 732 196 L 737 186 L 744 178 L 755 171 Z"/>
<path d="M 858 162 L 856 161 L 847 162 L 837 166 L 832 170 L 821 175 L 815 179 L 806 188 L 802 197 L 804 199 L 808 193 L 816 185 L 823 180 L 844 168 L 856 165 Z"/>
<path d="M 1252 160 L 1247 157 L 1231 158 L 1224 161 L 1177 174 L 1157 172 L 1156 171 L 1136 171 L 1135 172 L 1131 171 L 1130 172 L 1123 172 L 1122 173 L 1105 175 L 1087 180 L 1079 184 L 1065 183 L 1064 184 L 1049 185 L 1027 190 L 1024 192 L 1013 195 L 997 203 L 989 209 L 976 206 L 975 207 L 974 206 L 958 205 L 957 204 L 916 204 L 908 206 L 906 205 L 898 207 L 891 207 L 871 211 L 848 218 L 827 228 L 809 227 L 808 226 L 779 227 L 753 232 L 741 236 L 736 239 L 735 238 L 733 239 L 732 238 L 710 238 L 709 239 L 692 241 L 688 243 L 678 245 L 659 243 L 658 242 L 633 242 L 632 243 L 616 244 L 583 253 L 553 268 L 539 278 L 526 291 L 518 302 L 510 321 L 510 327 L 509 328 L 510 340 L 515 350 L 520 355 L 527 359 L 525 364 L 525 376 L 530 388 L 538 396 L 553 404 L 558 405 L 571 405 L 572 404 L 573 405 L 585 401 L 587 403 L 588 411 L 586 414 L 586 417 L 588 421 L 575 431 L 573 439 L 576 442 L 581 442 L 590 436 L 608 418 L 613 409 L 613 399 L 614 398 L 616 398 L 623 394 L 632 384 L 645 385 L 653 383 L 662 379 L 667 375 L 676 384 L 682 393 L 688 405 L 692 417 L 695 432 L 694 433 L 695 434 L 695 469 L 678 482 L 639 520 L 609 554 L 606 556 L 586 581 L 565 603 L 545 614 L 534 622 L 489 664 L 456 680 L 413 711 L 397 721 L 391 723 L 390 722 L 375 722 L 349 730 L 283 761 L 272 765 L 262 770 L 258 774 L 259 775 L 265 774 L 272 770 L 289 764 L 366 731 L 369 731 L 373 729 L 393 730 L 399 728 L 424 712 L 461 685 L 474 678 L 491 671 L 498 666 L 524 640 L 550 619 L 570 608 L 588 589 L 627 543 L 662 507 L 663 509 L 658 514 L 651 525 L 631 550 L 624 563 L 611 578 L 613 580 L 627 563 L 630 558 L 629 557 L 659 517 L 664 512 L 672 500 L 673 502 L 667 514 L 660 524 L 654 538 L 645 548 L 641 550 L 636 555 L 637 556 L 644 551 L 648 553 L 653 547 L 652 546 L 654 544 L 655 545 L 667 533 L 668 534 L 667 538 L 655 553 L 651 560 L 640 571 L 635 574 L 637 575 L 641 574 L 660 553 L 663 547 L 667 543 L 669 534 L 673 529 L 675 524 L 682 516 L 681 514 L 677 517 L 676 515 L 689 496 L 690 499 L 688 502 L 686 513 L 683 518 L 681 525 L 671 542 L 660 557 L 657 567 L 653 572 L 651 577 L 616 613 L 622 611 L 640 595 L 656 578 L 669 552 L 681 537 L 691 516 L 701 478 L 703 448 L 702 447 L 702 436 L 701 435 L 701 428 L 699 423 L 699 418 L 694 402 L 687 388 L 684 385 L 683 382 L 672 372 L 675 369 L 682 374 L 693 387 L 701 402 L 704 413 L 707 418 L 710 433 L 709 435 L 710 440 L 712 441 L 713 444 L 712 465 L 711 466 L 712 471 L 710 477 L 711 479 L 713 478 L 713 467 L 715 460 L 714 459 L 715 458 L 715 444 L 716 443 L 716 428 L 715 427 L 715 417 L 714 416 L 714 406 L 716 403 L 716 398 L 713 387 L 710 381 L 711 379 L 713 380 L 719 394 L 722 407 L 722 412 L 724 417 L 723 419 L 725 421 L 724 426 L 726 428 L 726 434 L 727 433 L 727 423 L 722 398 L 723 392 L 719 381 L 720 379 L 723 379 L 725 381 L 730 391 L 733 401 L 734 415 L 735 416 L 735 443 L 734 444 L 734 453 L 733 454 L 732 464 L 735 457 L 736 446 L 737 445 L 737 410 L 736 409 L 737 407 L 728 381 L 728 378 L 730 377 L 735 385 L 737 397 L 741 405 L 740 407 L 742 406 L 744 402 L 744 393 L 741 377 L 742 374 L 746 381 L 749 391 L 752 407 L 751 409 L 752 410 L 752 435 L 751 436 L 749 456 L 750 456 L 750 453 L 752 449 L 753 438 L 754 437 L 753 434 L 754 433 L 754 406 L 753 405 L 754 403 L 753 402 L 753 394 L 750 379 L 745 370 L 741 367 L 746 364 L 747 365 L 747 368 L 755 380 L 755 386 L 757 389 L 758 395 L 760 397 L 759 398 L 762 414 L 762 427 L 764 417 L 762 395 L 763 394 L 765 398 L 766 396 L 768 399 L 766 400 L 766 402 L 768 400 L 770 401 L 769 436 L 768 437 L 767 450 L 765 454 L 765 459 L 761 471 L 763 470 L 766 462 L 771 437 L 772 398 L 774 396 L 776 396 L 778 401 L 779 427 L 778 428 L 776 449 L 771 469 L 774 465 L 779 443 L 779 437 L 780 436 L 780 402 L 782 400 L 783 401 L 783 412 L 784 413 L 783 424 L 784 424 L 785 420 L 785 402 L 780 399 L 779 394 L 780 391 L 787 393 L 787 399 L 790 403 L 789 408 L 791 411 L 791 416 L 788 424 L 791 429 L 791 433 L 787 440 L 787 452 L 783 461 L 782 473 L 773 491 L 773 495 L 775 498 L 774 503 L 766 514 L 764 523 L 757 538 L 733 567 L 732 571 L 734 571 L 739 566 L 743 560 L 761 540 L 769 523 L 770 517 L 778 505 L 779 502 L 778 491 L 787 472 L 787 464 L 792 452 L 791 442 L 795 434 L 795 426 L 793 423 L 796 417 L 796 411 L 794 406 L 794 398 L 792 395 L 794 392 L 799 392 L 800 393 L 800 399 L 802 403 L 802 423 L 804 426 L 802 432 L 803 436 L 805 432 L 804 429 L 805 428 L 804 426 L 805 425 L 804 423 L 805 422 L 804 419 L 805 416 L 805 407 L 804 405 L 805 403 L 803 393 L 806 391 L 811 392 L 809 396 L 811 401 L 810 416 L 809 417 L 810 418 L 807 429 L 811 424 L 814 397 L 815 396 L 816 397 L 816 400 L 818 398 L 821 399 L 821 405 L 820 406 L 821 411 L 819 418 L 818 431 L 819 431 L 821 418 L 822 417 L 822 404 L 823 403 L 822 398 L 824 394 L 826 396 L 827 400 L 831 401 L 830 404 L 830 417 L 828 423 L 827 433 L 821 451 L 822 453 L 825 448 L 829 434 L 829 429 L 832 417 L 832 407 L 838 401 L 841 402 L 839 407 L 840 414 L 839 415 L 837 433 L 840 426 L 840 421 L 842 416 L 842 408 L 844 407 L 843 406 L 848 402 L 849 403 L 849 414 L 847 424 L 849 420 L 852 406 L 854 412 L 852 417 L 850 429 L 843 447 L 844 451 L 845 451 L 845 448 L 850 436 L 854 421 L 854 417 L 855 416 L 857 417 L 857 426 L 859 428 L 853 448 L 850 453 L 850 457 L 854 451 L 861 428 L 865 422 L 867 426 L 864 438 L 859 451 L 859 455 L 855 462 L 857 461 L 858 463 L 851 478 L 848 481 L 848 484 L 854 477 L 860 464 L 864 460 L 869 450 L 874 437 L 875 429 L 877 426 L 878 420 L 880 419 L 882 421 L 879 425 L 880 435 L 875 441 L 870 460 L 864 470 L 861 481 L 852 492 L 842 508 L 838 512 L 834 518 L 833 522 L 836 521 L 843 513 L 865 483 L 868 474 L 876 459 L 879 449 L 879 444 L 885 435 L 884 427 L 888 421 L 892 422 L 893 424 L 886 449 L 888 448 L 890 444 L 895 424 L 898 423 L 901 425 L 897 442 L 890 459 L 892 458 L 899 443 L 904 425 L 905 424 L 911 424 L 912 425 L 912 427 L 908 433 L 908 438 L 906 444 L 899 458 L 899 460 L 897 462 L 897 465 L 905 452 L 917 423 L 918 424 L 920 423 L 924 424 L 916 433 L 917 435 L 920 433 L 922 434 L 920 437 L 913 458 L 904 474 L 888 495 L 886 500 L 892 495 L 912 466 L 914 459 L 920 447 L 921 440 L 926 430 L 927 431 L 926 436 L 933 430 L 934 433 L 930 441 L 929 446 L 920 463 L 920 465 L 924 461 L 932 444 L 935 434 L 940 426 L 942 427 L 936 442 L 938 441 L 939 436 L 941 434 L 942 435 L 940 442 L 941 444 L 934 463 L 929 473 L 909 501 L 908 504 L 902 511 L 915 497 L 924 483 L 930 476 L 935 462 L 940 453 L 941 441 L 943 438 L 945 442 L 947 439 L 949 429 L 955 440 L 961 446 L 961 448 L 957 452 L 956 458 L 952 466 L 938 486 L 928 498 L 929 499 L 937 491 L 951 472 L 961 454 L 962 449 L 963 448 L 971 453 L 966 458 L 966 461 L 963 466 L 963 469 L 959 478 L 949 488 L 947 494 L 936 505 L 934 509 L 934 512 L 929 520 L 914 533 L 905 548 L 895 558 L 874 571 L 865 583 L 859 589 L 846 598 L 842 602 L 842 604 L 846 603 L 862 592 L 871 583 L 872 580 L 878 573 L 895 564 L 907 553 L 914 544 L 919 535 L 928 528 L 935 520 L 939 513 L 941 506 L 950 498 L 954 490 L 962 482 L 966 475 L 967 470 L 971 464 L 972 458 L 974 455 L 979 456 L 980 459 L 966 483 L 968 483 L 972 478 L 983 458 L 988 459 L 991 461 L 988 464 L 977 482 L 964 496 L 965 497 L 977 486 L 992 466 L 994 461 L 1004 462 L 1005 463 L 994 472 L 994 474 L 996 475 L 969 508 L 965 511 L 963 515 L 990 488 L 1008 463 L 1018 463 L 1019 464 L 1004 475 L 1008 474 L 1010 475 L 1004 485 L 963 526 L 965 526 L 973 520 L 994 500 L 1017 472 L 1023 462 L 1032 462 L 1033 463 L 1026 471 L 1021 480 L 1011 489 L 1009 494 L 1004 499 L 994 505 L 987 512 L 982 523 L 973 532 L 963 539 L 956 546 L 956 548 L 964 544 L 985 526 L 991 514 L 996 509 L 1005 504 L 1012 498 L 1020 486 L 1026 481 L 1029 475 L 1041 460 L 1049 459 L 1063 453 L 1078 458 L 1095 458 L 1117 453 L 1125 449 L 1124 447 L 1120 447 L 1115 449 L 1105 451 L 1098 451 L 1097 452 L 1096 451 L 1094 452 L 1080 452 L 1073 450 L 1072 449 L 1083 442 L 1089 442 L 1092 444 L 1103 444 L 1104 443 L 1103 441 L 1091 438 L 1084 438 L 1081 439 L 1079 442 L 1073 441 L 1054 449 L 1036 453 L 1009 454 L 1008 453 L 999 453 L 990 451 L 970 442 L 961 433 L 958 427 L 957 420 L 960 410 L 968 402 L 972 400 L 973 397 L 971 395 L 968 395 L 962 398 L 954 406 L 929 414 L 921 414 L 920 415 L 897 415 L 882 411 L 872 405 L 867 400 L 864 393 L 866 388 L 863 385 L 858 384 L 850 387 L 847 386 L 841 387 L 837 386 L 832 381 L 833 377 L 841 370 L 850 367 L 859 366 L 860 363 L 858 362 L 851 362 L 850 363 L 848 362 L 838 365 L 831 369 L 824 378 L 819 379 L 816 381 L 802 384 L 787 384 L 771 380 L 763 375 L 755 366 L 754 363 L 755 352 L 754 351 L 750 351 L 746 356 L 734 362 L 725 364 L 718 364 L 717 365 L 704 364 L 693 360 L 688 356 L 693 353 L 692 351 L 681 351 L 673 353 L 669 352 L 656 358 L 653 362 L 648 365 L 637 367 L 638 370 L 645 370 L 655 366 L 660 360 L 662 360 L 669 356 L 674 357 L 675 358 L 661 371 L 646 377 L 636 377 L 627 373 L 621 373 L 619 376 L 621 379 L 625 381 L 620 387 L 613 391 L 605 393 L 600 392 L 599 391 L 602 388 L 609 384 L 608 383 L 602 383 L 601 384 L 596 384 L 592 389 L 579 396 L 575 397 L 555 396 L 543 390 L 536 383 L 532 372 L 532 366 L 535 360 L 535 355 L 532 352 L 529 352 L 520 344 L 517 337 L 517 323 L 525 304 L 531 296 L 543 284 L 557 274 L 571 266 L 587 259 L 615 251 L 627 250 L 628 249 L 661 249 L 673 252 L 680 252 L 709 245 L 731 245 L 732 246 L 725 251 L 725 253 L 728 253 L 744 246 L 745 242 L 765 236 L 775 235 L 776 234 L 777 235 L 778 234 L 785 234 L 786 233 L 810 233 L 825 236 L 830 235 L 843 228 L 862 221 L 899 213 L 922 212 L 923 211 L 927 212 L 969 212 L 983 215 L 982 217 L 971 219 L 968 222 L 971 224 L 987 219 L 998 218 L 1000 215 L 997 213 L 1005 207 L 1015 202 L 1044 193 L 1054 191 L 1061 191 L 1062 190 L 1092 190 L 1092 188 L 1090 187 L 1097 184 L 1115 180 L 1131 179 L 1132 178 L 1135 179 L 1137 178 L 1158 178 L 1171 181 L 1179 181 L 1229 164 L 1244 161 L 1245 162 L 1251 162 Z M 646 552 L 647 551 L 648 552 L 647 553 Z M 651 547 L 652 548 L 648 552 L 647 550 Z M 651 547 L 652 546 L 653 547 L 652 548 Z M 654 544 L 655 543 L 656 544 L 655 545 Z M 665 532 L 666 531 L 667 532 L 666 533 Z M 666 531 L 667 530 L 668 531 L 667 532 Z M 667 530 L 668 529 L 669 530 L 668 531 Z M 670 525 L 671 528 L 669 530 L 668 528 Z M 670 525 L 671 524 L 672 525 L 671 526 Z M 674 518 L 675 517 L 676 518 L 675 519 Z M 675 517 L 676 516 L 677 517 L 676 518 Z M 671 514 L 672 516 L 670 520 L 656 539 L 655 536 Z M 673 511 L 674 513 L 672 515 L 671 513 Z M 675 508 L 676 510 L 674 512 L 673 510 Z M 675 508 L 676 507 L 677 508 L 676 509 Z M 662 507 L 663 506 L 664 507 L 663 508 Z M 676 506 L 677 505 L 678 507 L 677 508 Z M 663 506 L 664 505 L 665 506 L 664 507 Z M 677 505 L 678 504 L 679 505 L 678 506 Z M 680 501 L 681 503 L 679 505 L 678 503 Z M 680 490 L 681 491 L 673 501 L 672 500 L 673 497 Z M 682 488 L 683 487 L 684 488 L 683 489 Z M 683 487 L 684 486 L 685 487 L 684 488 Z M 684 486 L 685 485 L 686 486 L 685 487 Z M 685 485 L 686 484 L 687 485 L 686 486 Z M 693 477 L 694 480 L 692 485 L 691 494 L 687 495 L 681 502 L 680 500 L 690 485 L 686 484 Z M 1009 474 L 1010 473 L 1011 474 L 1010 475 Z M 995 474 L 996 473 L 997 474 L 996 475 Z M 1032 462 L 1033 461 L 1034 462 L 1033 463 Z M 943 438 L 944 437 L 945 438 L 944 439 Z M 941 433 L 942 432 L 943 434 L 942 435 Z M 921 433 L 922 432 L 923 433 L 922 434 Z M 713 429 L 714 430 L 714 437 L 713 438 L 711 434 Z M 941 425 L 942 424 L 943 426 L 942 427 Z M 857 424 L 858 423 L 859 424 L 858 425 Z M 862 422 L 863 421 L 864 422 L 863 423 Z M 936 420 L 937 421 L 927 431 L 926 430 L 927 424 L 931 421 Z M 942 418 L 943 420 L 941 422 L 940 420 Z M 942 418 L 943 417 L 944 418 L 943 419 Z M 873 416 L 876 420 L 873 427 L 872 436 L 869 445 L 859 462 L 858 459 L 863 449 L 863 446 L 867 436 L 867 432 L 870 424 L 870 419 Z M 947 417 L 949 415 L 950 416 L 949 418 Z M 865 411 L 868 413 L 868 416 L 866 418 L 864 417 L 864 412 Z M 859 403 L 863 409 L 861 410 L 860 414 L 858 406 Z M 608 399 L 609 400 L 608 405 L 604 415 L 590 430 L 585 434 L 580 436 L 579 435 L 581 432 L 593 421 L 592 417 L 593 402 L 591 399 L 593 397 L 600 399 L 598 403 L 598 407 L 594 413 L 594 416 L 596 416 L 600 412 L 602 402 L 601 400 L 602 399 Z M 849 393 L 850 394 L 849 397 L 845 400 L 843 398 L 843 395 Z M 839 394 L 840 396 L 836 399 L 834 403 L 833 402 L 833 394 L 834 393 Z M 854 392 L 856 392 L 858 396 L 858 400 L 855 405 L 853 396 Z M 770 390 L 771 389 L 775 390 L 776 394 L 773 396 L 771 394 Z M 826 389 L 828 388 L 830 391 L 828 392 Z M 819 388 L 820 390 L 816 395 L 814 395 L 813 391 L 815 389 Z M 822 388 L 823 387 L 824 388 L 823 389 Z M 720 387 L 722 390 L 721 394 L 719 390 Z M 823 387 L 825 385 L 826 386 L 825 388 Z M 718 386 L 719 385 L 720 387 L 719 388 Z M 759 384 L 760 383 L 763 386 L 765 386 L 767 389 L 763 391 Z M 717 384 L 718 383 L 719 385 L 718 386 Z M 758 383 L 759 382 L 760 383 L 759 384 Z M 736 375 L 738 377 L 741 386 L 742 398 L 743 399 L 742 404 L 740 402 L 739 389 L 735 379 Z M 688 375 L 689 374 L 690 375 L 689 376 Z M 715 374 L 720 373 L 721 377 L 720 378 Z M 707 374 L 710 373 L 711 375 L 709 376 Z M 723 373 L 724 372 L 729 373 L 727 375 L 725 375 Z M 739 372 L 740 371 L 741 373 L 740 374 Z M 731 371 L 733 370 L 734 372 L 733 373 Z M 694 369 L 697 370 L 706 379 L 713 394 L 714 398 L 714 404 L 713 405 L 711 403 L 707 391 L 700 378 L 693 370 Z M 688 369 L 699 382 L 707 398 L 712 417 L 712 424 L 713 425 L 712 430 L 710 426 L 709 416 L 706 407 L 696 386 L 689 377 L 691 376 L 687 371 Z M 739 368 L 740 369 L 739 372 L 737 370 Z M 692 369 L 693 368 L 694 369 L 693 370 Z M 686 369 L 687 368 L 688 369 L 687 370 Z M 677 366 L 683 361 L 687 366 L 687 368 L 683 369 L 679 368 Z"/>
<path d="M 817 150 L 810 150 L 801 154 L 781 169 L 772 179 L 767 187 L 766 195 L 767 196 L 770 195 L 771 189 L 779 178 L 786 171 L 806 156 L 816 153 Z"/>
</g>
</svg>