<svg xmlns="http://www.w3.org/2000/svg" width="1536" height="1024" viewBox="0 0 1536 1024">
  <path d="M 1318 790 L 1315 791 L 1314 798 L 1316 803 L 1320 804 L 1321 800 Z M 1302 786 L 1299 787 L 1291 793 L 1287 797 L 1287 800 L 1291 800 L 1302 789 Z M 1332 782 L 1333 785 L 1346 794 L 1350 793 L 1350 791 L 1346 787 L 1336 782 Z M 1280 781 L 1278 781 L 1263 789 L 1263 792 L 1266 792 L 1279 784 Z M 1205 779 L 1202 780 L 1188 789 L 1185 793 L 1188 794 L 1193 791 L 1205 781 Z M 472 779 L 469 779 L 463 782 L 463 785 L 466 785 L 470 783 L 472 781 Z M 1230 778 L 1214 786 L 1211 789 L 1211 791 L 1215 791 L 1227 783 L 1230 780 Z M 1180 778 L 1178 778 L 1156 791 L 1155 794 L 1160 794 L 1180 780 Z M 1150 778 L 1141 781 L 1123 790 L 1123 793 L 1127 793 L 1150 780 Z M 1097 777 L 1081 785 L 1078 789 L 1081 789 L 1092 783 L 1096 780 Z M 357 775 L 350 778 L 334 788 L 334 792 L 338 791 L 356 778 Z M 749 774 L 740 777 L 723 786 L 726 788 L 728 788 L 741 781 L 743 779 L 748 777 Z M 721 774 L 715 775 L 704 779 L 692 786 L 691 790 L 695 790 L 701 787 L 712 780 L 721 776 Z M 690 774 L 682 774 L 674 776 L 655 786 L 653 789 L 661 789 L 664 788 Z M 654 773 L 651 773 L 645 775 L 629 783 L 627 785 L 627 787 L 631 787 L 654 775 Z M 570 773 L 568 773 L 554 780 L 553 783 L 557 783 L 563 780 L 569 776 Z M 339 771 L 333 772 L 323 778 L 322 781 L 327 780 L 332 776 L 338 773 Z M 251 771 L 248 771 L 234 779 L 230 782 L 226 789 L 230 788 L 240 780 L 251 773 Z M 222 772 L 223 775 L 227 775 L 227 771 Z M 1335 771 L 1336 773 L 1338 774 L 1349 774 L 1351 773 L 1351 770 L 1337 770 Z M 439 770 L 437 770 L 425 777 L 423 779 L 423 781 L 425 781 L 439 772 Z M 274 770 L 269 771 L 260 776 L 254 781 L 250 783 L 248 785 L 248 787 L 252 787 L 259 783 L 265 778 L 271 775 L 274 772 Z M 299 769 L 295 770 L 273 785 L 270 788 L 270 790 L 274 790 L 288 779 L 295 775 L 299 771 Z M 202 751 L 202 757 L 206 771 L 210 771 L 210 767 L 208 762 L 207 752 L 206 750 Z M 1347 748 L 1343 748 L 1340 750 L 1340 754 L 1345 753 L 1347 751 Z M 1215 734 L 1211 735 L 1210 738 L 1213 738 L 1215 736 Z M 1152 734 L 1150 734 L 1146 736 L 1145 739 L 1150 738 L 1152 736 Z M 1177 733 L 1172 734 L 1169 741 L 1171 740 Z M 199 739 L 201 739 L 204 735 L 203 733 L 198 734 Z M 1198 732 L 1195 732 L 1192 734 L 1188 741 L 1192 740 L 1198 734 Z M 1131 731 L 1126 733 L 1121 738 L 1121 740 L 1124 740 L 1127 738 L 1131 733 Z M 1078 731 L 1074 733 L 1073 737 L 1075 737 Z M 1009 732 L 1010 735 L 1016 734 L 1015 731 Z M 1109 730 L 1103 733 L 1098 738 L 1098 740 L 1101 740 L 1104 738 L 1109 733 Z M 611 726 L 607 727 L 608 746 L 611 746 L 613 744 L 614 740 L 614 732 L 613 728 Z M 930 724 L 927 725 L 927 744 L 930 744 L 932 742 L 933 738 L 933 729 L 932 726 Z M 1248 718 L 1244 719 L 1239 722 L 1238 725 L 1241 725 L 1247 722 Z M 994 704 L 994 710 L 997 719 L 1001 720 L 1001 714 L 997 704 Z M 978 704 L 978 707 L 982 712 L 984 713 L 987 711 L 981 704 Z M 1246 700 L 1244 700 L 1239 707 L 1239 712 L 1241 712 L 1247 704 Z M 397 690 L 393 691 L 393 721 L 394 723 L 397 722 L 398 716 Z M 1228 688 L 1226 690 L 1226 703 L 1227 710 L 1231 711 L 1232 709 L 1232 690 L 1230 688 Z M 927 680 L 923 681 L 923 704 L 925 706 L 927 706 L 929 704 L 928 682 Z M 1187 679 L 1184 679 L 1178 683 L 1149 711 L 1149 714 L 1154 711 L 1172 695 Z M 607 679 L 607 702 L 610 704 L 612 702 L 612 681 L 611 679 Z M 1013 675 L 1009 676 L 1010 716 L 1012 718 L 1014 718 L 1016 716 L 1015 680 Z M 251 680 L 252 683 L 257 685 L 272 683 L 284 683 L 286 681 L 285 676 L 283 675 L 267 675 L 254 677 Z M 1021 671 L 1023 718 L 1026 724 L 1039 727 L 1031 734 L 1031 736 L 1034 736 L 1041 728 L 1046 726 L 1055 728 L 1047 735 L 1049 738 L 1059 728 L 1206 726 L 1215 725 L 1219 723 L 1221 719 L 1220 677 L 1218 671 L 1213 667 L 1156 665 L 1035 665 L 1027 666 Z M 1055 714 L 1091 678 L 1107 678 L 1084 698 L 1073 712 L 1093 696 L 1110 678 L 1125 678 L 1090 713 L 1094 712 L 1129 678 L 1144 678 L 1111 709 L 1111 712 L 1148 678 L 1164 678 L 1140 699 L 1131 711 L 1169 677 L 1207 679 L 1209 708 L 1207 714 L 1193 714 L 1205 703 L 1206 699 L 1200 702 L 1189 715 L 1172 714 L 1190 699 L 1202 683 L 1166 716 L 1069 716 Z M 1088 678 L 1081 683 L 1049 715 L 1040 715 L 1037 714 L 1035 712 L 1034 700 L 1055 678 L 1070 678 L 1040 706 L 1038 710 L 1042 709 L 1048 704 L 1072 681 L 1073 677 Z M 1052 678 L 1046 682 L 1035 693 L 1033 690 L 1034 677 L 1036 676 L 1047 676 Z M 926 647 L 923 649 L 923 660 L 926 662 L 928 660 L 928 653 Z M 1182 645 L 1182 648 L 1184 649 L 1204 649 L 1206 648 L 1205 645 L 1200 644 L 1184 644 Z M 1146 645 L 1147 647 L 1149 648 L 1156 648 L 1157 647 L 1159 647 L 1159 645 L 1157 644 L 1148 644 Z M 1229 647 L 1231 648 L 1274 649 L 1279 645 L 1232 643 Z M 397 643 L 394 644 L 393 646 L 393 668 L 395 670 L 398 669 L 399 667 L 399 645 Z M 1091 646 L 1093 647 L 1106 647 L 1107 646 L 1109 646 L 1109 644 L 1102 642 L 1094 642 L 1092 643 Z M 337 646 L 339 647 L 348 647 L 349 646 L 352 646 L 352 644 L 344 642 L 340 642 Z M 555 643 L 553 642 L 542 641 L 510 641 L 502 643 L 491 644 L 464 644 L 463 643 L 435 644 L 410 643 L 408 644 L 407 646 L 409 648 L 417 649 L 427 648 L 444 649 L 496 648 L 513 646 L 553 646 Z M 693 645 L 749 645 L 775 648 L 809 649 L 887 647 L 890 643 L 887 642 L 851 643 L 834 641 L 782 643 L 731 640 L 708 640 L 697 641 Z M 634 644 L 647 641 L 645 640 L 637 640 Z M 1034 634 L 1025 639 L 1024 641 L 1024 651 L 1028 652 L 1029 650 L 1029 642 L 1034 636 Z M 993 634 L 990 634 L 987 636 L 983 640 L 983 643 L 985 643 Z M 1014 633 L 1011 634 L 1006 639 L 1006 641 L 1009 641 L 1014 636 Z M 1124 632 L 1123 634 L 1123 647 L 1124 649 L 1128 649 L 1129 647 L 1129 635 L 1128 633 Z M 969 632 L 966 632 L 957 640 L 957 643 L 961 642 L 969 634 Z M 952 631 L 947 632 L 942 640 L 944 640 L 947 638 Z M 609 624 L 606 625 L 607 652 L 610 652 L 611 650 L 611 630 Z M 398 615 L 395 616 L 394 618 L 395 631 L 398 631 L 398 629 L 399 628 L 399 617 Z M 1067 614 L 1067 620 L 1069 625 L 1072 624 L 1072 620 L 1070 614 Z M 911 607 L 909 608 L 909 613 L 912 620 L 914 618 L 914 613 L 913 609 Z M 198 605 L 199 609 L 204 608 L 203 604 Z M 198 584 L 198 588 L 200 589 L 204 588 L 204 585 L 202 583 Z M 1126 581 L 1123 582 L 1123 608 L 1126 610 L 1128 609 L 1129 607 L 1128 586 Z M 969 580 L 967 580 L 961 584 L 941 604 L 938 609 L 941 609 L 953 598 L 953 597 L 969 582 Z M 607 577 L 604 578 L 605 601 L 608 601 L 609 599 L 609 579 Z M 283 579 L 279 576 L 260 577 L 254 579 L 254 584 L 256 585 L 278 585 L 281 584 L 283 582 Z M 1059 575 L 1058 579 L 1060 584 L 1060 593 L 1062 599 L 1065 598 L 1065 578 L 1064 576 Z M 907 575 L 903 576 L 904 589 L 906 591 L 908 591 L 908 578 L 907 577 Z M 1051 577 L 1049 573 L 1045 569 L 1040 567 L 1033 566 L 991 568 L 939 567 L 927 569 L 924 571 L 922 575 L 924 621 L 928 626 L 933 628 L 949 629 L 956 628 L 1026 629 L 1038 628 L 1045 626 L 1052 620 L 1053 617 L 1053 592 Z M 936 593 L 934 589 L 934 581 L 936 579 L 950 580 L 946 582 Z M 936 614 L 935 609 L 936 595 L 938 595 L 951 582 L 950 579 L 976 578 L 984 580 L 978 584 L 958 604 L 951 612 L 951 614 L 954 613 L 960 608 L 985 583 L 986 580 L 1001 580 L 971 609 L 966 616 L 939 617 Z M 1039 580 L 1041 594 L 1040 602 L 1038 601 L 1030 609 L 1028 613 L 1031 613 L 1040 603 L 1041 612 L 1040 614 L 1036 616 L 1029 617 L 1010 616 L 1036 589 L 1037 585 L 1029 590 L 1004 617 L 987 617 L 1020 585 L 1022 581 L 1019 581 L 986 614 L 985 618 L 971 618 L 969 616 L 1004 582 L 1005 579 L 1032 577 L 1037 578 Z M 399 564 L 396 565 L 397 589 L 400 589 Z M 754 557 L 755 559 L 757 560 L 765 560 L 768 556 L 756 556 Z M 629 558 L 629 560 L 631 561 L 670 561 L 672 560 L 672 558 L 670 557 L 652 557 L 651 556 L 634 556 Z M 822 556 L 823 558 L 834 556 L 832 555 L 824 555 Z M 698 557 L 699 560 L 701 561 L 709 561 L 710 560 L 720 559 L 720 557 L 715 555 L 707 555 Z M 474 557 L 474 560 L 568 561 L 573 560 L 573 558 L 571 557 L 543 555 L 491 555 L 476 556 Z M 409 556 L 409 559 L 414 560 L 422 559 L 422 557 L 420 555 L 411 555 Z M 1137 557 L 1139 558 L 1179 559 L 1196 558 L 1196 556 L 1194 555 L 1159 553 L 1140 553 L 1138 554 Z M 369 556 L 368 552 L 320 553 L 318 554 L 318 557 L 320 558 L 353 558 Z M 1022 550 L 1021 555 L 1022 557 L 1025 558 L 1025 556 L 1026 555 L 1025 550 Z M 949 547 L 947 547 L 945 549 L 945 551 L 948 551 Z M 932 544 L 929 544 L 921 550 L 920 555 L 924 558 L 924 554 L 932 546 Z M 1074 543 L 1069 544 L 1066 547 L 1066 549 L 1069 549 L 1072 547 Z M 1015 543 L 1012 543 L 1008 546 L 1006 551 L 1010 550 L 1015 545 Z M 995 543 L 992 543 L 987 546 L 983 550 L 983 552 L 988 551 Z M 909 543 L 907 543 L 900 548 L 897 551 L 897 554 L 900 554 L 904 551 L 909 545 Z M 1056 542 L 1051 543 L 1047 547 L 1047 549 L 1051 548 Z M 837 540 L 835 540 L 825 548 L 824 552 L 827 551 L 836 543 Z M 812 540 L 810 540 L 802 546 L 802 549 L 804 549 Z M 606 537 L 604 538 L 603 540 L 603 557 L 606 559 L 608 557 L 608 539 Z M 1125 528 L 1122 529 L 1121 536 L 1121 552 L 1123 556 L 1126 555 L 1127 553 L 1127 532 Z M 1094 517 L 1095 524 L 1096 526 L 1099 527 L 1099 521 L 1097 517 Z M 399 516 L 396 518 L 395 526 L 395 537 L 397 541 L 400 540 L 401 518 Z M 1066 494 L 1063 494 L 1055 500 L 1040 513 L 1033 520 L 1033 522 L 1037 521 L 1053 508 L 1066 496 Z M 603 493 L 603 509 L 607 510 L 608 508 L 607 495 L 606 493 Z M 959 487 L 956 487 L 948 493 L 929 511 L 927 514 L 927 516 L 930 515 L 935 511 L 948 498 L 949 498 Z M 1087 485 L 1086 489 L 1088 496 L 1088 501 L 1089 503 L 1092 503 L 1092 487 L 1091 485 Z M 1122 481 L 1120 490 L 1120 497 L 1121 501 L 1124 503 L 1127 499 L 1127 484 L 1126 482 Z M 254 486 L 258 489 L 267 488 L 276 489 L 280 488 L 282 486 L 281 481 L 279 480 L 264 480 L 257 481 L 255 482 Z M 1080 487 L 1076 478 L 1071 475 L 1045 473 L 729 477 L 723 485 L 723 529 L 727 535 L 745 538 L 736 549 L 751 537 L 766 538 L 755 550 L 772 537 L 785 538 L 775 549 L 789 538 L 860 539 L 846 553 L 851 552 L 862 538 L 881 539 L 868 550 L 870 553 L 885 538 L 1065 535 L 1078 532 L 1081 526 Z M 1068 510 L 1069 520 L 1065 523 L 1056 522 Z M 755 488 L 750 493 L 734 505 L 734 493 L 736 488 L 738 487 Z M 819 487 L 802 502 L 777 527 L 765 527 L 762 525 L 799 490 L 801 487 Z M 797 487 L 776 506 L 756 526 L 737 526 L 734 523 L 734 514 L 761 487 L 766 486 L 777 487 L 758 504 L 742 520 L 740 524 L 743 524 L 750 518 L 778 491 L 780 487 Z M 1068 508 L 1046 524 L 957 525 L 995 487 L 954 526 L 939 525 L 977 488 L 935 527 L 784 525 L 822 487 L 838 487 L 805 521 L 843 487 L 860 487 L 828 521 L 865 486 L 879 488 L 851 517 L 883 487 L 900 487 L 863 523 L 901 487 L 917 487 L 882 523 L 923 485 L 938 486 L 900 523 L 942 486 L 1014 486 L 977 521 L 1018 486 L 1034 486 L 1004 515 L 1038 485 L 1053 486 L 1012 523 L 1055 485 L 1066 486 Z M 711 473 L 707 474 L 706 477 L 705 519 L 706 522 L 708 524 L 710 524 L 712 522 L 713 494 Z M 402 467 L 398 468 L 398 496 L 400 496 L 402 494 L 403 478 L 402 471 L 403 469 Z M 197 467 L 197 469 L 199 471 L 203 471 L 202 466 Z M 195 452 L 195 455 L 197 457 L 199 457 L 201 455 L 201 453 L 199 451 Z M 923 450 L 920 450 L 918 452 L 918 456 L 920 462 L 923 461 Z M 863 450 L 860 451 L 857 455 L 860 455 L 863 452 Z M 681 450 L 678 450 L 678 454 L 680 453 Z M 905 449 L 900 450 L 898 452 L 898 454 L 901 454 Z M 812 449 L 809 449 L 802 454 L 801 458 L 804 458 L 812 451 Z M 784 449 L 779 450 L 775 454 L 775 456 L 780 455 L 784 451 Z M 756 449 L 752 450 L 751 455 L 756 451 Z M 840 448 L 836 449 L 833 451 L 829 455 L 829 457 L 832 457 L 837 454 L 839 452 Z M 657 448 L 654 449 L 651 452 L 651 454 L 653 454 L 657 450 Z M 1022 447 L 1020 447 L 1019 449 L 1019 461 L 1020 463 L 1023 462 Z M 709 446 L 705 448 L 701 456 L 708 450 Z M 613 445 L 610 445 L 606 448 L 602 453 L 604 464 L 607 463 L 608 461 L 608 452 Z M 590 445 L 586 447 L 584 453 L 588 450 L 590 447 Z M 569 443 L 567 443 L 560 449 L 561 453 L 568 446 Z M 1350 444 L 1350 446 L 1352 447 L 1356 446 L 1356 442 L 1352 442 Z M 326 445 L 328 446 L 355 446 L 357 445 L 358 443 L 356 442 L 343 441 L 328 441 L 326 442 Z M 1217 441 L 1218 443 L 1221 444 L 1235 443 L 1235 441 L 1233 440 L 1219 440 Z M 1038 442 L 1040 443 L 1049 441 L 1047 440 L 1040 440 Z M 466 440 L 466 442 L 470 444 L 478 444 L 483 442 L 483 440 Z M 1274 444 L 1297 444 L 1299 443 L 1299 441 L 1297 440 L 1279 439 L 1275 440 Z M 1075 439 L 1075 441 L 1077 442 L 1108 441 L 1108 439 L 1106 438 L 1077 438 Z M 1166 441 L 1172 442 L 1178 441 L 1178 439 L 1169 437 Z M 1121 436 L 1120 438 L 1121 455 L 1122 458 L 1124 458 L 1126 456 L 1127 446 L 1125 437 Z M 961 438 L 962 440 L 982 441 L 983 440 L 985 440 L 985 438 L 983 437 L 967 436 Z M 402 421 L 399 421 L 398 423 L 397 430 L 398 446 L 400 446 L 402 444 L 403 434 L 403 423 Z M 581 416 L 577 417 L 572 422 L 571 425 L 575 424 L 580 419 Z M 1023 413 L 1020 415 L 1019 428 L 1020 433 L 1024 433 L 1026 427 L 1026 418 L 1025 415 Z M 477 401 L 477 404 L 481 404 L 480 401 Z M 1024 396 L 1021 397 L 1024 406 L 1025 402 L 1025 398 Z M 1122 395 L 1119 396 L 1118 405 L 1118 419 L 1120 423 L 1122 423 L 1123 418 Z M 628 394 L 623 395 L 621 397 L 621 400 L 623 400 Z M 809 392 L 805 393 L 800 398 L 800 400 L 804 399 L 809 394 Z M 878 389 L 873 391 L 853 409 L 838 425 L 837 428 L 840 427 L 845 423 L 878 391 Z M 854 389 L 847 393 L 834 405 L 813 428 L 816 428 L 821 424 L 854 392 Z M 744 388 L 739 389 L 732 395 L 709 418 L 706 422 L 706 424 L 708 424 L 743 391 Z M 939 385 L 937 387 L 936 390 L 938 406 L 938 442 L 940 444 L 942 444 L 944 442 L 943 421 L 944 392 L 943 387 L 941 385 Z M 280 390 L 280 387 L 278 385 L 275 384 L 257 385 L 251 388 L 254 392 L 259 394 L 274 394 Z M 488 382 L 484 383 L 484 390 L 486 397 L 489 397 L 489 385 L 488 384 Z M 400 377 L 397 378 L 398 397 L 401 397 L 402 392 Z M 496 388 L 500 435 L 514 441 L 508 449 L 518 440 L 528 442 L 521 448 L 523 451 L 533 441 L 545 442 L 537 452 L 550 441 L 635 442 L 622 454 L 625 456 L 644 440 L 923 441 L 929 436 L 929 386 L 924 379 L 912 376 L 710 375 L 711 362 L 707 360 L 706 376 L 701 377 L 507 376 L 499 380 Z M 563 390 L 526 427 L 522 430 L 515 430 L 511 428 L 510 426 L 513 425 L 517 422 L 549 389 Z M 584 389 L 542 430 L 529 429 L 569 389 L 572 388 Z M 674 389 L 659 402 L 632 430 L 614 429 L 653 393 L 653 390 L 646 394 L 616 423 L 612 430 L 548 429 L 588 389 L 606 389 L 588 406 L 590 409 L 614 387 L 667 387 Z M 545 389 L 511 422 L 509 420 L 509 412 L 531 388 L 533 387 Z M 721 387 L 717 389 L 705 399 L 701 404 L 675 429 L 672 430 L 637 429 L 677 391 L 679 388 L 687 387 L 695 389 L 678 404 L 658 424 L 656 428 L 660 427 L 697 392 L 699 388 L 713 386 Z M 526 388 L 509 405 L 507 401 L 507 389 L 509 387 L 513 386 L 519 386 Z M 682 428 L 723 386 L 901 386 L 917 390 L 916 429 L 913 430 L 905 429 L 915 418 L 910 419 L 900 430 L 885 429 L 914 400 L 909 401 L 878 430 L 862 429 L 899 392 L 892 395 L 856 430 L 792 429 L 831 391 L 818 399 L 788 430 L 772 429 L 795 404 L 765 430 L 752 429 L 792 390 L 783 394 L 748 429 L 728 428 L 765 394 L 766 389 L 724 428 Z M 1117 359 L 1116 361 L 1116 368 L 1117 371 L 1121 372 L 1121 361 L 1120 359 Z M 1020 357 L 1017 358 L 1016 361 L 1016 371 L 1019 373 L 1021 371 L 1021 359 Z M 605 355 L 602 357 L 603 366 L 606 365 L 607 363 Z M 641 351 L 639 351 L 634 357 L 638 357 Z M 573 351 L 570 351 L 565 355 L 565 357 L 568 357 Z M 522 351 L 520 351 L 515 354 L 514 358 L 517 358 L 522 353 Z M 480 351 L 478 351 L 472 355 L 473 359 L 477 356 Z M 599 350 L 597 350 L 591 354 L 590 358 L 594 357 L 599 352 Z M 502 350 L 500 350 L 494 355 L 493 357 L 494 360 L 497 359 L 501 354 Z M 624 349 L 622 349 L 618 351 L 614 355 L 616 358 L 623 353 Z M 436 348 L 432 349 L 425 356 L 425 358 L 428 358 L 436 350 Z M 411 348 L 409 348 L 406 350 L 401 355 L 401 357 L 405 356 L 409 352 Z M 456 347 L 454 347 L 446 354 L 447 358 L 453 353 L 456 349 Z M 920 339 L 918 339 L 918 357 L 919 359 L 921 358 Z M 674 333 L 670 333 L 666 335 L 664 338 L 669 338 L 673 336 Z M 1120 324 L 1117 324 L 1116 326 L 1117 343 L 1120 342 L 1121 327 L 1120 326 Z M 673 318 L 669 318 L 666 321 L 666 323 L 671 322 L 673 320 Z M 710 316 L 706 317 L 706 337 L 710 338 L 711 335 L 711 319 L 710 318 Z M 1022 314 L 1018 315 L 1019 333 L 1022 332 L 1023 318 Z M 329 297 L 329 300 L 335 300 L 334 297 Z M 919 296 L 916 297 L 915 305 L 916 311 L 920 312 Z M 533 294 L 531 294 L 525 298 L 506 318 L 506 320 L 508 320 L 511 318 L 532 297 Z M 493 294 L 489 295 L 466 318 L 462 323 L 461 327 L 492 297 Z M 402 294 L 398 295 L 368 326 L 367 329 L 369 329 L 372 327 L 401 298 Z M 250 297 L 251 300 L 257 303 L 272 303 L 275 302 L 278 299 L 278 296 L 276 294 L 258 293 L 254 294 Z M 1118 291 L 1116 291 L 1116 295 L 1115 296 L 1116 305 L 1120 304 L 1120 296 Z M 1322 288 L 1320 290 L 1321 294 L 1325 294 L 1327 292 L 1327 290 L 1325 288 Z M 192 289 L 191 292 L 193 294 L 196 294 L 198 292 L 198 290 L 196 288 Z M 348 292 L 349 337 L 354 344 L 368 347 L 360 357 L 364 356 L 374 345 L 385 347 L 378 357 L 381 357 L 392 345 L 645 342 L 651 340 L 655 333 L 656 296 L 653 288 L 644 282 L 360 281 L 351 284 Z M 642 315 L 644 319 L 644 325 L 643 328 L 641 330 L 628 329 Z M 644 297 L 644 309 L 620 331 L 606 330 L 639 298 L 639 296 L 637 296 L 632 299 L 599 331 L 596 332 L 584 331 L 619 297 L 621 293 L 634 292 L 641 293 Z M 619 293 L 614 296 L 602 307 L 579 331 L 563 331 L 597 294 L 590 299 L 569 320 L 562 328 L 561 332 L 537 331 L 548 322 L 564 306 L 580 292 Z M 360 329 L 361 320 L 385 294 L 380 295 L 361 315 L 359 302 L 363 292 L 474 293 L 446 320 L 439 331 L 476 293 L 510 293 L 480 326 L 514 293 L 573 293 L 535 332 L 519 331 L 550 298 L 511 333 L 420 333 L 457 294 L 452 295 L 415 334 L 401 333 L 435 296 L 395 334 L 383 333 L 419 296 L 414 297 L 377 334 L 363 334 Z M 332 277 L 332 280 L 335 285 L 339 285 L 339 283 L 337 279 L 335 277 Z M 708 268 L 706 272 L 706 292 L 708 292 L 709 290 L 709 275 L 708 274 Z M 1331 269 L 1336 273 L 1340 272 L 1340 269 L 1336 267 Z M 1321 262 L 1319 265 L 1321 267 L 1324 267 L 1326 264 L 1324 262 Z M 1019 261 L 1017 262 L 1017 272 L 1018 274 L 1020 273 L 1020 263 Z M 916 261 L 915 268 L 919 272 L 918 261 Z M 492 261 L 495 271 L 494 261 Z M 1114 261 L 1115 271 L 1117 271 L 1118 269 L 1118 263 L 1117 261 Z M 601 260 L 600 263 L 603 269 L 603 260 Z M 1340 246 L 1338 244 L 1334 243 L 1330 245 L 1328 247 L 1328 249 L 1340 249 Z M 202 242 L 200 242 L 196 246 L 196 248 L 198 250 L 200 250 L 203 248 L 204 244 Z M 623 237 L 622 240 L 625 244 L 628 243 L 628 239 L 627 237 Z M 1155 236 L 1157 238 L 1161 237 L 1160 233 L 1157 233 Z M 507 234 L 507 238 L 509 239 L 512 238 L 511 233 Z M 881 231 L 879 231 L 877 234 L 879 236 L 882 235 Z M 942 229 L 939 230 L 939 234 L 938 235 L 939 241 L 941 243 L 944 242 L 945 240 L 945 233 L 944 232 L 944 230 Z M 828 229 L 825 230 L 826 241 L 829 241 L 829 239 L 830 238 Z M 1138 228 L 1134 229 L 1134 239 L 1136 241 L 1138 241 L 1140 239 L 1140 232 Z M 809 226 L 806 226 L 804 228 L 804 241 L 805 243 L 811 242 L 812 238 L 812 231 L 811 228 Z M 710 226 L 705 227 L 704 229 L 704 240 L 705 242 L 710 243 L 712 241 L 712 228 Z M 601 226 L 599 228 L 599 238 L 602 241 L 604 241 L 606 239 L 606 228 L 604 226 Z M 492 226 L 490 226 L 488 228 L 488 241 L 490 243 L 494 242 L 495 240 L 495 229 Z M 916 225 L 913 229 L 913 238 L 914 241 L 918 244 L 920 243 L 922 239 L 922 230 L 920 226 Z M 1206 223 L 1204 225 L 1204 237 L 1205 239 L 1209 240 L 1211 239 L 1212 237 L 1212 228 L 1211 225 L 1209 223 Z M 396 222 L 391 223 L 392 241 L 395 241 L 397 239 L 397 224 Z M 204 221 L 225 220 L 237 767 L 316 768 L 294 784 L 323 768 L 378 769 L 365 785 L 387 768 L 406 769 L 391 783 L 415 768 L 593 772 L 569 790 L 595 771 L 622 772 L 599 789 L 626 770 L 773 774 L 752 787 L 800 774 L 780 788 L 808 773 L 828 774 L 812 785 L 858 774 L 839 786 L 892 774 L 870 791 L 898 773 L 918 774 L 905 783 L 948 774 L 936 785 L 956 773 L 972 775 L 958 785 L 1038 776 L 1012 789 L 1065 776 L 1045 791 L 1073 775 L 1118 777 L 1098 795 L 1137 775 L 1254 778 L 1235 794 L 1258 777 L 1321 771 L 1301 245 L 1115 244 L 1115 225 L 1113 244 L 1100 246 L 1020 244 L 1018 227 L 1011 245 L 237 243 L 237 217 L 257 223 L 229 193 Z M 305 252 L 706 256 L 708 266 L 711 254 L 1297 255 L 1310 765 L 400 757 L 399 747 L 393 758 L 309 756 Z M 239 249 L 299 253 L 298 756 L 246 758 L 240 752 L 236 252 Z M 263 211 L 294 235 L 302 228 L 287 215 L 897 220 L 1312 217 L 1301 229 L 1307 235 L 1337 204 L 1302 188 L 1299 196 L 1310 203 L 528 211 L 288 204 L 300 192 L 294 186 Z M 602 184 L 598 184 L 596 186 L 596 196 L 598 198 L 600 198 L 602 196 Z M 1235 180 L 1236 184 L 1239 184 L 1241 181 L 1240 179 Z M 919 178 L 917 178 L 914 182 L 914 189 L 917 190 L 919 188 L 920 184 Z M 703 178 L 701 180 L 701 192 L 702 194 L 706 195 L 708 193 L 709 181 L 708 179 Z M 198 179 L 199 183 L 201 184 L 204 183 L 204 181 L 201 178 Z M 493 177 L 490 178 L 489 180 L 489 194 L 492 196 L 494 194 L 495 190 L 495 179 Z M 804 176 L 802 181 L 802 188 L 803 189 L 803 191 L 806 192 L 808 190 L 808 178 L 807 176 Z M 1250 176 L 1250 180 L 1252 181 L 1255 181 L 1257 179 L 1257 177 L 1255 175 Z M 1115 175 L 1112 176 L 1111 178 L 1111 194 L 1112 196 L 1115 196 L 1117 194 L 1117 179 Z M 284 172 L 282 172 L 272 182 L 273 185 L 276 185 L 285 176 Z M 1012 172 L 1014 190 L 1016 190 L 1018 188 L 1019 185 L 1019 174 L 1018 172 Z M 595 170 L 593 173 L 596 177 L 600 176 L 600 173 L 597 170 Z M 396 169 L 392 169 L 388 173 L 389 176 L 392 177 L 392 180 L 390 183 L 390 187 L 392 189 L 396 188 L 397 186 Z M 798 168 L 798 170 L 801 173 L 803 174 L 806 172 L 805 170 L 800 167 Z M 919 166 L 914 166 L 912 168 L 912 170 L 915 172 L 919 169 Z" fill="currentColor" stroke="currentColor" stroke-width="0.8" stroke-linecap="round" stroke-linejoin="round" fill-rule="evenodd"/>
</svg>