<svg xmlns="http://www.w3.org/2000/svg" width="1536" height="1024" viewBox="0 0 1536 1024">
  <path d="M 693 885 L 694 887 L 697 888 L 710 890 L 760 894 L 811 892 L 818 891 L 820 890 L 821 888 L 818 887 L 811 887 L 793 889 L 740 889 L 712 887 L 702 885 Z M 974 807 L 971 808 L 969 812 L 962 819 L 956 823 L 940 830 L 937 834 L 952 830 L 970 820 L 974 815 L 974 812 L 975 811 Z M 813 362 L 803 364 L 798 370 L 792 401 L 792 825 L 797 841 L 806 847 L 818 841 L 824 822 L 829 389 L 825 372 Z M 812 367 L 819 375 L 822 390 L 817 825 L 812 839 L 807 842 L 802 838 L 798 825 L 798 393 L 803 373 Z M 726 362 L 715 374 L 711 403 L 717 809 L 722 839 L 730 846 L 738 846 L 745 840 L 749 826 L 749 418 L 744 374 L 737 364 Z M 727 367 L 735 371 L 740 386 L 742 460 L 742 827 L 738 839 L 734 842 L 727 836 L 724 827 L 717 393 L 721 374 Z M 892 356 L 881 358 L 874 369 L 870 402 L 861 820 L 864 831 L 872 838 L 883 834 L 890 816 L 905 430 L 904 376 L 899 361 Z M 890 360 L 897 372 L 898 431 L 883 820 L 874 833 L 868 823 L 877 397 L 882 368 Z M 648 356 L 641 361 L 637 373 L 636 436 L 650 810 L 657 833 L 663 838 L 669 838 L 678 829 L 680 815 L 670 400 L 665 367 L 657 357 Z M 649 361 L 654 362 L 659 371 L 663 405 L 673 820 L 670 830 L 666 833 L 659 825 L 656 812 L 645 521 L 642 379 Z M 579 347 L 574 351 L 570 362 L 569 407 L 590 785 L 594 811 L 601 821 L 609 823 L 615 818 L 618 807 L 601 389 L 594 355 L 589 349 Z M 581 352 L 586 354 L 591 366 L 595 415 L 610 771 L 610 814 L 606 818 L 598 805 L 581 532 L 575 412 L 575 369 Z M 526 337 L 518 347 L 516 368 L 544 773 L 551 799 L 566 805 L 566 815 L 548 803 L 553 812 L 578 826 L 629 844 L 580 822 L 572 815 L 568 804 L 569 766 L 545 378 L 540 348 L 533 338 Z M 528 341 L 535 355 L 562 767 L 563 793 L 560 799 L 555 794 L 551 774 L 525 416 L 523 350 Z M 621 223 L 622 226 L 659 232 L 705 236 L 812 237 L 855 234 L 901 228 L 907 223 L 838 230 L 757 233 L 681 229 Z M 499 191 L 499 193 L 506 200 L 518 207 L 520 204 L 518 204 L 508 198 L 502 191 Z M 1040 189 L 1031 198 L 1024 202 L 1018 204 L 1018 206 L 1025 204 L 1032 200 L 1040 192 Z M 785 183 L 790 199 L 795 210 L 798 212 L 801 211 L 801 207 L 795 196 L 790 183 Z M 734 182 L 729 183 L 720 192 L 709 206 L 709 211 L 713 211 L 717 207 Z M 848 184 L 858 189 L 881 205 L 884 206 L 888 205 L 888 203 L 885 200 L 859 184 L 852 181 Z M 677 177 L 674 177 L 662 182 L 642 192 L 631 199 L 629 204 L 634 204 L 659 189 L 674 182 L 677 180 Z M 1029 174 L 1027 172 L 1023 173 L 1023 178 L 1021 182 L 1014 189 L 998 198 L 964 210 L 926 219 L 923 223 L 935 222 L 955 218 L 978 212 L 998 205 L 1017 195 L 1027 185 L 1029 181 Z M 508 173 L 508 179 L 511 186 L 519 194 L 527 199 L 541 206 L 567 215 L 597 222 L 604 222 L 603 219 L 580 213 L 553 204 L 537 197 L 524 189 L 516 181 L 513 172 Z M 872 163 L 886 167 L 897 168 L 911 172 L 950 187 L 956 187 L 959 185 L 956 183 L 948 181 L 935 175 L 910 167 L 878 160 Z M 667 158 L 665 157 L 655 158 L 641 162 L 625 164 L 612 167 L 584 176 L 566 183 L 565 187 L 570 187 L 577 185 L 610 173 L 633 167 L 639 164 L 648 164 L 664 161 L 666 160 Z M 915 144 L 916 146 L 959 155 L 967 158 L 975 159 L 994 165 L 1001 165 L 1000 162 L 986 157 L 954 149 L 928 144 Z M 640 142 L 639 140 L 634 140 L 610 143 L 590 147 L 546 158 L 538 161 L 535 163 L 535 165 L 545 164 L 556 160 L 604 149 L 635 144 Z M 864 141 L 880 142 L 897 139 L 887 137 L 866 137 L 864 138 Z M 644 139 L 645 142 L 664 141 L 675 139 L 674 136 L 659 136 Z M 490 159 L 466 186 L 462 254 L 482 277 L 522 788 L 519 822 L 506 821 L 522 836 L 498 838 L 528 850 L 509 853 L 539 862 L 517 864 L 558 876 L 538 879 L 606 897 L 581 899 L 719 920 L 857 916 L 951 897 L 938 896 L 966 884 L 1007 879 L 979 878 L 1026 863 L 1005 860 L 1016 847 L 1038 844 L 1017 841 L 1020 828 L 1031 826 L 1019 823 L 1017 789 L 1047 410 L 1086 375 L 1068 324 L 1055 312 L 1057 277 L 1077 249 L 1065 173 L 985 136 L 849 117 L 822 99 L 719 98 L 690 117 L 580 130 Z M 1017 424 L 1020 425 L 996 732 L 991 780 L 988 790 L 983 797 L 981 795 L 981 775 L 1005 435 L 1008 425 Z M 1021 415 L 1019 417 L 1015 418 L 1007 417 L 1008 414 L 1017 413 Z M 1033 409 L 1033 413 L 1027 415 L 1027 411 L 1030 411 Z M 978 395 L 982 404 L 989 411 L 999 415 L 997 418 L 989 416 L 981 410 L 977 399 Z M 989 354 L 992 357 L 992 359 L 991 361 L 987 362 L 985 360 L 985 357 Z M 959 351 L 965 362 L 968 381 L 945 791 L 941 811 L 934 818 L 931 814 L 945 423 L 949 370 L 953 356 Z M 1061 339 L 1074 367 L 1074 376 L 1069 383 L 1065 383 L 1070 378 L 1070 375 L 1064 373 L 1060 377 L 1062 380 L 1054 386 L 1021 395 L 1017 398 L 1005 399 L 998 397 L 993 393 L 985 373 L 981 369 L 990 392 L 996 399 L 1001 401 L 1018 400 L 1022 397 L 1061 384 L 1066 384 L 1047 394 L 1016 403 L 1002 404 L 994 401 L 990 397 L 978 369 L 978 356 L 984 347 L 988 346 L 992 348 L 991 351 L 986 351 L 982 354 L 982 364 L 986 368 L 995 367 L 1001 381 L 1007 387 L 1003 389 L 1005 392 L 1012 393 L 1018 391 L 1018 389 L 1008 388 L 1022 386 L 1045 378 L 1064 369 L 1068 365 L 1068 361 L 1061 364 L 1052 346 L 1053 340 L 1058 344 Z M 1020 337 L 1022 339 L 1024 344 L 1025 350 L 1025 363 L 1023 377 L 1014 380 L 1010 379 L 1012 351 L 1015 341 L 1017 338 Z M 1055 323 L 1059 327 L 1059 331 L 1054 331 Z M 513 301 L 523 305 L 525 307 L 524 310 L 522 310 L 515 307 L 512 303 Z M 522 295 L 616 316 L 727 326 L 819 326 L 874 322 L 940 313 L 1016 295 L 989 306 L 935 318 L 879 326 L 813 331 L 725 331 L 642 324 L 556 308 Z M 1042 290 L 1035 373 L 1018 331 L 1003 358 L 989 339 L 952 348 L 940 387 L 932 823 L 951 794 L 974 409 L 998 426 L 976 801 L 997 776 L 1034 422 L 1004 797 L 961 833 L 849 870 L 988 827 L 957 852 L 837 888 L 954 860 L 1006 811 L 995 849 L 920 887 L 799 908 L 659 897 L 552 855 L 534 811 L 558 854 L 662 879 L 546 825 L 676 870 L 834 872 L 654 859 L 538 801 L 498 294 L 514 346 L 515 313 L 527 334 L 528 318 L 594 331 L 527 307 L 808 338 L 1027 300 L 945 330 L 1023 312 L 1030 327 Z M 511 289 L 515 291 L 518 294 L 513 294 L 510 291 Z M 474 248 L 475 240 L 503 260 L 568 281 L 640 293 L 728 300 L 828 299 L 913 291 L 968 281 L 1019 266 L 1051 251 L 1063 240 L 1064 249 L 1060 255 L 1057 249 L 1044 264 L 1052 263 L 1032 275 L 941 301 L 849 313 L 724 315 L 626 306 L 552 291 L 492 268 L 483 261 L 495 263 L 479 249 L 482 261 Z M 1062 224 L 1049 242 L 1034 251 L 956 276 L 833 292 L 726 293 L 636 285 L 548 268 L 492 244 L 476 222 L 477 203 L 487 212 L 494 241 L 497 237 L 524 252 L 577 267 L 508 238 L 496 226 L 494 215 L 532 231 L 583 243 L 735 258 L 918 249 L 999 233 L 1042 216 L 1033 233 L 999 250 L 875 278 L 960 267 L 1044 239 L 1050 212 L 1061 202 Z M 846 155 L 848 161 L 845 161 Z M 694 154 L 694 161 L 692 160 L 691 156 Z M 737 152 L 741 152 L 745 150 L 756 151 L 780 151 L 782 150 L 795 152 L 799 154 L 798 158 L 797 156 L 794 154 L 737 155 Z M 731 148 L 732 140 L 743 139 L 799 139 L 808 141 L 807 152 L 787 146 L 764 145 L 749 146 L 745 148 Z M 731 134 L 731 129 L 735 126 L 784 126 L 803 127 L 808 131 L 807 135 L 786 133 L 782 134 L 764 134 L 758 133 L 737 135 Z M 480 185 L 491 171 L 504 163 L 550 146 L 617 132 L 694 125 L 693 148 L 685 153 L 683 160 L 696 169 L 723 169 L 735 161 L 799 159 L 809 170 L 837 172 L 852 167 L 857 160 L 845 147 L 848 124 L 934 134 L 1001 150 L 1042 168 L 1055 180 L 1057 190 L 1046 204 L 1019 218 L 947 237 L 853 249 L 745 252 L 643 245 L 546 227 L 493 205 L 482 194 Z M 704 122 L 708 116 L 716 114 L 721 115 L 730 111 L 729 109 L 716 109 L 730 105 L 786 104 L 820 108 L 831 115 L 833 118 L 832 121 L 819 110 L 806 110 L 807 113 L 819 116 L 827 125 L 830 131 L 831 146 L 833 120 L 836 129 L 835 161 L 831 162 L 833 157 L 830 155 L 827 158 L 826 164 L 818 162 L 817 127 L 815 123 L 808 118 L 787 116 L 738 116 L 724 118 L 713 128 L 714 133 L 718 132 L 721 127 L 722 129 L 720 158 L 714 159 L 714 135 L 712 135 L 711 152 L 706 152 L 705 157 Z" fill="currentColor" stroke="currentColor" stroke-width="0.8" stroke-linecap="round" stroke-linejoin="round" fill-rule="evenodd"/>
</svg>