<svg xmlns="http://www.w3.org/2000/svg" width="1536" height="1024" viewBox="0 0 1536 1024">
  <path d="M 442 711 L 453 712 L 461 708 L 447 708 Z M 474 709 L 476 710 L 489 710 L 497 708 L 497 706 L 488 706 L 484 705 Z M 1089 708 L 1091 709 L 1108 709 L 1111 705 L 1099 704 L 1089 706 Z M 968 705 L 969 707 L 973 708 L 981 708 L 988 706 L 987 704 L 983 703 L 976 703 Z M 542 705 L 565 706 L 578 708 L 596 708 L 603 706 L 602 704 L 579 704 L 577 703 L 573 704 L 545 703 Z M 382 705 L 405 707 L 434 704 L 419 703 L 385 703 Z M 1016 703 L 1016 705 L 1036 705 L 1046 707 L 1058 707 L 1059 708 L 1070 708 L 1078 704 L 1042 702 L 1025 702 L 1024 703 Z M 957 705 L 956 703 L 950 702 L 935 704 L 935 706 L 938 706 L 939 707 L 947 707 Z M 320 704 L 320 706 L 359 706 L 359 704 L 347 702 L 335 702 Z M 1146 704 L 1172 705 L 1176 704 L 1179 702 L 1177 701 L 1154 701 L 1153 702 L 1146 702 Z M 1285 664 L 1273 665 L 1272 669 L 1283 669 L 1285 668 Z M 659 657 L 656 657 L 646 668 L 646 671 L 648 671 L 651 669 L 659 661 Z M 896 653 L 891 654 L 875 670 L 875 672 L 877 672 L 888 663 L 896 655 Z M 193 646 L 192 649 L 193 651 L 196 652 L 198 654 L 203 656 L 209 654 L 200 647 L 196 645 Z M 1267 645 L 1268 647 L 1274 650 L 1281 651 L 1281 649 L 1279 647 L 1271 642 L 1269 642 Z M 264 639 L 260 639 L 252 647 L 251 651 L 255 651 L 259 648 L 265 642 Z M 222 631 L 222 637 L 225 644 L 227 646 L 230 645 L 230 641 L 227 631 L 225 630 Z M 771 628 L 766 629 L 766 646 L 768 648 L 770 648 L 772 646 Z M 770 594 L 766 595 L 767 613 L 772 612 L 772 596 Z M 434 566 L 435 568 L 437 569 L 447 570 L 447 567 L 438 563 L 436 563 Z M 770 558 L 768 558 L 766 560 L 766 578 L 769 580 L 771 579 L 772 577 L 772 560 Z M 561 550 L 559 550 L 546 564 L 544 565 L 543 568 L 546 569 L 548 568 L 554 562 L 555 559 L 559 555 Z M 442 534 L 442 538 L 454 550 L 459 551 L 459 548 L 446 533 Z M 485 526 L 480 527 L 479 532 L 479 543 L 483 543 L 486 530 Z M 770 520 L 768 520 L 766 522 L 766 540 L 769 542 L 771 541 L 772 539 L 772 522 Z M 1042 521 L 1040 519 L 1033 520 L 1025 523 L 1024 527 L 1028 527 L 1037 525 L 1042 523 Z M 599 518 L 597 518 L 585 532 L 586 535 L 588 535 L 594 529 L 599 521 Z M 1024 493 L 1021 493 L 1011 503 L 1011 507 L 1013 507 L 1025 497 Z M 770 484 L 766 485 L 767 504 L 770 504 L 772 502 L 772 486 Z M 993 480 L 991 482 L 990 487 L 990 493 L 993 495 L 995 493 L 997 485 L 996 481 Z M 619 471 L 615 474 L 593 505 L 583 516 L 580 521 L 565 538 L 565 541 L 570 539 L 580 529 L 587 520 L 589 515 L 595 510 L 602 501 L 618 477 Z M 766 446 L 765 449 L 765 464 L 766 466 L 769 468 L 771 467 L 772 465 L 772 448 L 771 446 Z M 770 408 L 766 409 L 765 426 L 769 429 L 772 426 L 772 410 Z M 770 373 L 766 374 L 765 376 L 765 391 L 767 393 L 770 393 L 772 391 L 772 375 Z M 850 346 L 847 346 L 842 351 L 840 356 L 842 356 L 849 349 Z M 771 339 L 766 339 L 765 341 L 765 356 L 767 358 L 771 357 L 772 355 L 772 341 Z M 613 325 L 612 328 L 618 332 L 633 338 L 635 338 L 637 335 L 635 333 L 621 326 L 619 326 L 616 324 Z M 893 317 L 891 316 L 880 317 L 877 318 L 875 321 L 877 322 L 891 322 L 893 321 Z M 671 312 L 667 313 L 664 319 L 666 323 L 668 321 L 671 315 Z M 770 304 L 766 305 L 765 307 L 765 321 L 769 324 L 771 323 L 772 321 L 772 306 Z M 645 297 L 642 299 L 642 303 L 646 310 L 649 313 L 652 312 L 651 306 L 647 298 Z M 880 283 L 878 282 L 875 283 L 866 292 L 864 295 L 864 297 L 867 298 L 880 287 Z M 855 276 L 853 276 L 850 279 L 848 283 L 848 289 L 852 288 L 857 280 L 857 278 Z M 198 681 L 257 712 L 266 707 L 232 689 L 1330 690 L 1300 706 L 1303 713 L 1363 686 L 1308 659 L 1303 664 L 1322 676 L 1189 676 L 1266 669 L 1154 646 L 1075 605 L 982 512 L 858 325 L 816 286 L 779 272 L 736 278 L 686 316 L 556 499 L 475 584 L 389 637 L 294 666 L 367 661 L 354 677 L 238 676 L 257 666 L 246 661 Z M 1161 677 L 1171 666 L 1175 668 L 1184 669 L 1189 671 L 1182 677 L 1174 678 Z M 1165 666 L 1154 677 L 1144 678 L 1129 677 L 1145 661 L 1149 660 L 1163 664 Z M 1142 658 L 1123 677 L 1116 678 L 1098 677 L 1115 660 L 1122 651 L 1124 650 L 1134 655 L 1139 656 Z M 414 643 L 380 677 L 359 676 L 372 662 L 374 658 L 378 657 L 383 654 L 396 650 L 410 643 Z M 1117 647 L 1118 649 L 1103 664 L 1093 676 L 1085 678 L 1073 678 L 1066 676 L 1075 668 L 1092 650 L 1101 639 L 1109 644 L 1111 644 Z M 1095 636 L 1096 638 L 1060 676 L 1033 676 L 1042 668 L 1064 645 L 1078 628 L 1080 627 L 1082 629 Z M 1076 625 L 1069 631 L 1025 677 L 1012 678 L 1000 676 L 1002 675 L 1021 654 L 1031 645 L 1050 624 L 1061 614 Z M 1056 611 L 1020 649 L 1013 655 L 993 677 L 968 676 L 985 659 L 985 658 L 1004 638 L 1012 631 L 1041 599 L 1048 605 L 1052 607 Z M 1037 595 L 1037 598 L 1016 618 L 972 665 L 965 671 L 962 677 L 936 676 L 940 672 L 940 671 L 945 667 L 970 641 L 988 621 L 993 617 L 1013 596 L 1022 585 L 1024 584 L 1030 590 Z M 1021 581 L 1008 593 L 932 672 L 930 676 L 904 676 L 1003 571 L 1006 566 Z M 1004 563 L 898 677 L 772 676 L 771 662 L 765 677 L 620 676 L 639 650 L 614 677 L 588 676 L 620 639 L 582 677 L 555 676 L 597 627 L 548 677 L 521 676 L 578 609 L 514 677 L 486 676 L 567 585 L 479 677 L 452 676 L 538 579 L 444 677 L 418 676 L 485 605 L 412 676 L 387 676 L 528 557 L 691 335 L 756 288 L 793 292 L 860 354 L 843 376 L 866 362 L 872 372 L 843 406 L 876 377 L 882 386 L 851 432 L 886 397 L 896 408 L 860 457 L 900 417 L 910 431 L 869 486 L 914 439 L 924 454 L 876 515 L 929 463 L 940 479 L 884 545 L 944 486 L 954 500 L 898 568 L 958 507 L 971 524 L 907 595 L 974 528 L 987 544 L 914 625 L 990 548 Z" fill="currentColor" stroke="currentColor" stroke-width="0.8" stroke-linecap="round" stroke-linejoin="round" fill-rule="evenodd"/>
</svg>