<svg xmlns="http://www.w3.org/2000/svg" width="1536" height="1024" viewBox="0 0 1536 1024">
  <path d="M 364 844 L 367 848 L 371 849 L 370 845 L 368 845 L 366 843 Z M 1268 738 L 1272 737 L 1273 734 L 1269 736 Z M 749 729 L 397 800 L 386 804 L 534 776 L 707 740 Z M 737 691 L 404 758 L 375 766 L 732 694 Z M 726 652 L 409 715 L 363 726 L 387 723 L 707 658 Z M 1068 650 L 1067 648 L 1047 653 L 1018 658 L 1014 660 L 999 662 L 980 667 L 970 668 L 966 670 L 956 671 L 932 676 L 923 679 L 919 679 L 915 681 L 923 681 L 933 678 L 938 678 L 948 675 L 968 672 L 977 669 L 987 668 Z M 714 611 L 352 684 L 377 681 L 709 614 Z M 1073 603 L 1042 610 L 1032 611 L 1023 614 L 998 618 L 984 622 L 959 626 L 955 628 L 945 629 L 931 633 L 921 634 L 917 636 L 908 637 L 903 640 L 908 640 L 913 638 L 918 638 L 928 635 L 938 634 L 943 632 L 948 632 L 967 627 L 977 626 L 991 622 L 1054 610 L 1073 605 Z M 703 569 L 341 640 L 341 642 L 634 586 L 698 572 Z M 1079 559 L 1070 560 L 1066 562 L 1056 563 L 1051 565 L 1041 566 L 1036 568 L 1031 568 L 987 577 L 978 580 L 924 590 L 901 596 L 897 596 L 891 599 L 912 596 L 936 590 L 1072 563 L 1079 561 Z M 1152 556 L 1150 557 L 1146 565 L 1146 567 L 1149 565 L 1151 561 Z M 691 527 L 374 588 L 328 599 L 595 549 L 682 531 Z M 1104 509 L 1099 509 L 962 538 L 947 540 L 928 545 L 884 553 L 879 556 L 926 548 L 1057 520 L 1072 518 L 1081 515 L 1099 512 Z M 1157 503 L 1155 504 L 1154 507 L 1151 510 L 1149 515 L 1148 513 L 1145 515 L 1130 540 L 1130 543 L 1133 542 L 1134 538 L 1140 530 L 1145 520 L 1148 517 L 1151 516 L 1154 512 L 1157 506 Z M 680 485 L 359 546 L 317 556 L 667 490 L 680 487 Z M 1134 456 L 883 507 L 867 512 L 890 509 L 1007 484 L 1128 460 L 1134 458 Z M 668 444 L 312 512 L 306 515 L 665 447 Z M 1257 430 L 1254 432 L 1250 442 L 1247 444 L 1245 448 L 1245 453 L 1248 451 L 1249 447 L 1254 441 L 1255 435 L 1257 433 Z M 1222 424 L 1219 425 L 1214 437 L 1213 448 L 1215 448 L 1217 444 L 1217 439 Z M 1272 406 L 1270 407 L 1266 413 L 1267 416 L 1271 410 Z M 1164 405 L 856 467 L 854 469 L 1154 410 L 1164 407 Z M 656 403 L 398 450 L 294 471 L 294 473 L 653 406 Z M 645 363 L 371 413 L 283 432 L 638 367 L 645 365 Z M 1191 356 L 986 395 L 841 426 L 1187 359 Z M 1275 351 L 1273 351 L 1271 354 L 1271 358 L 1273 357 L 1273 355 Z M 634 325 L 392 368 L 279 390 L 272 393 L 634 327 Z M 1286 317 L 1284 317 L 1281 320 L 1280 323 L 1278 325 L 1276 325 L 1272 329 L 1269 334 L 1269 336 L 1271 336 L 1279 331 L 1284 324 L 1286 320 Z M 1208 310 L 992 350 L 836 381 L 830 384 L 1198 314 Z M 624 288 L 351 336 L 265 353 L 263 355 L 619 291 Z M 1196 269 L 961 311 L 839 335 L 818 341 L 1180 274 Z M 615 256 L 415 290 L 286 314 L 254 322 L 615 258 Z M 1184 230 L 939 273 L 806 301 L 1157 237 Z M 1172 192 L 898 240 L 806 258 L 795 262 L 1169 195 Z M 1162 160 L 909 203 L 792 225 L 786 228 L 956 197 L 1155 164 L 1162 162 Z M 1372 207 L 1345 187 L 1310 189 L 1265 263 L 1217 121 L 1172 94 L 730 159 L 174 271 L 153 296 L 153 340 L 178 391 L 171 409 L 182 405 L 177 432 L 186 424 L 311 920 L 320 910 L 326 933 L 335 922 L 364 933 L 634 862 L 808 836 L 850 807 L 900 818 L 1182 746 L 1363 719 L 1398 667 L 1302 371 L 1376 233 Z M 390 893 L 380 896 L 362 895 L 378 894 L 383 892 Z M 442 881 L 429 885 L 424 884 L 437 880 Z M 337 877 L 349 888 L 356 892 L 359 892 L 363 894 L 357 895 L 348 891 L 339 883 L 336 879 Z M 513 865 L 508 867 L 504 867 L 491 871 L 482 872 L 478 874 L 473 875 L 467 874 L 471 872 L 476 872 L 489 868 L 494 868 L 507 864 Z M 512 864 L 517 862 L 521 863 L 517 865 Z M 548 857 L 543 859 L 525 863 L 520 862 L 529 859 L 537 858 L 541 856 Z M 574 851 L 552 857 L 547 856 L 551 854 L 560 853 L 569 850 Z M 810 797 L 806 799 L 702 824 L 660 832 L 651 835 L 646 835 L 597 847 L 592 846 L 613 840 L 657 831 L 677 825 L 707 819 L 715 816 L 732 813 L 736 811 L 762 805 L 772 804 L 805 796 Z M 809 796 L 813 794 L 816 795 L 813 797 Z M 854 778 L 856 777 L 860 780 L 868 783 L 882 783 L 899 780 L 905 778 L 910 779 L 905 781 L 877 786 L 868 786 L 859 782 Z M 932 775 L 927 777 L 922 777 L 917 779 L 909 778 L 916 777 L 926 774 Z M 1018 757 L 1005 761 L 991 764 L 986 764 L 981 766 L 976 766 L 971 768 L 966 768 L 957 771 L 952 771 L 951 772 L 946 771 L 951 769 L 956 769 L 965 766 L 984 762 L 994 761 L 1003 758 L 1008 758 L 1013 756 Z M 1050 749 L 1055 747 L 1061 748 L 1056 749 L 1055 750 Z M 1070 746 L 1065 748 L 1060 747 L 1065 745 Z M 1074 744 L 1079 742 L 1083 743 L 1079 745 Z M 1102 739 L 1097 741 L 1092 740 L 1097 738 Z M 1101 738 L 1106 737 L 1107 736 L 1112 737 L 1107 739 Z M 1126 734 L 1121 736 L 1116 735 L 1121 733 Z M 1130 732 L 1135 730 L 1141 731 L 1136 732 L 1135 733 Z M 1150 729 L 1145 731 L 1140 730 L 1145 728 Z M 1226 713 L 1213 717 L 1208 717 L 1199 720 L 1189 721 L 1179 724 L 1174 723 L 1183 720 L 1192 719 L 1201 716 L 1212 715 L 1221 712 Z M 832 712 L 835 713 L 835 716 L 838 723 L 840 734 L 844 748 L 840 743 L 836 731 L 836 728 L 831 715 Z M 1241 710 L 1231 713 L 1226 712 L 1235 709 Z M 1254 707 L 1249 709 L 1245 709 L 1244 710 L 1240 709 L 1244 707 L 1249 706 Z M 1283 701 L 1273 704 L 1268 703 L 1277 700 Z M 861 701 L 864 700 L 866 701 L 870 705 L 869 708 L 865 703 Z M 848 703 L 834 705 L 824 708 L 808 717 L 799 727 L 798 723 L 801 720 L 802 717 L 806 714 L 809 713 L 812 710 L 822 705 L 823 703 L 821 702 L 825 700 L 829 699 L 836 699 L 845 701 Z M 1292 699 L 1287 701 L 1282 700 L 1287 698 Z M 1311 695 L 1301 698 L 1296 697 L 1305 694 Z M 1336 689 L 1329 692 L 1323 691 L 1332 688 Z M 1360 677 L 1360 680 L 1349 686 L 1340 689 L 1335 688 L 1352 682 Z M 819 673 L 822 673 L 827 689 L 826 693 L 824 691 Z M 1376 662 L 1377 669 L 1374 675 L 1373 672 L 1374 671 L 1374 667 Z M 843 659 L 847 658 L 854 661 L 858 665 L 857 668 L 854 664 Z M 834 661 L 830 663 L 824 663 L 811 667 L 803 671 L 785 684 L 788 678 L 792 674 L 807 665 L 807 662 L 811 660 L 826 657 Z M 1369 654 L 1368 664 L 1355 676 L 1306 691 L 883 779 L 866 778 L 850 765 L 867 772 L 902 768 L 1220 703 L 1340 675 L 1356 668 Z M 1105 630 L 1108 632 L 1107 635 L 1100 648 L 1094 656 L 1093 652 L 1094 651 L 1094 647 L 1097 639 L 1097 634 L 1101 630 Z M 808 629 L 810 632 L 813 641 L 814 648 L 815 649 L 812 651 L 806 631 Z M 835 619 L 837 617 L 839 617 L 846 623 L 844 624 Z M 830 619 L 812 621 L 791 628 L 794 625 L 798 623 L 797 619 L 811 614 L 817 615 L 822 618 Z M 1161 595 L 1164 598 L 1165 601 L 1164 604 L 1156 609 L 1147 617 L 1141 619 L 1147 613 L 1149 609 L 1153 605 L 1160 603 L 1162 600 L 1155 602 Z M 772 592 L 767 597 L 765 597 L 765 599 L 763 602 L 762 597 L 764 594 L 766 595 Z M 798 589 L 804 609 L 800 609 L 800 606 L 797 599 L 796 592 L 795 591 Z M 1198 584 L 1189 589 L 1182 590 L 1187 584 L 1195 582 Z M 820 574 L 823 573 L 828 575 L 830 581 Z M 811 577 L 805 579 L 799 579 L 787 583 L 771 591 L 779 584 L 787 580 L 789 577 L 787 576 L 794 573 L 803 573 L 802 575 Z M 1136 565 L 1138 573 L 1142 578 L 1148 581 L 1156 581 L 1161 583 L 1161 586 L 1157 593 L 1158 591 L 1155 592 L 1143 604 L 1141 608 L 1141 612 L 1147 610 L 1138 620 L 1142 620 L 1130 630 L 1124 632 L 1135 620 L 1136 617 L 1124 627 L 1119 633 L 1117 637 L 1113 632 L 1112 628 L 1108 625 L 1103 626 L 1099 628 L 1098 622 L 1099 621 L 1099 614 L 1104 586 L 1104 577 L 1105 572 L 1107 568 L 1111 564 L 1117 570 L 1124 570 L 1130 566 Z M 784 544 L 786 547 L 791 564 L 790 568 L 783 548 Z M 810 532 L 813 531 L 817 533 L 820 536 L 820 540 L 815 535 L 812 534 Z M 799 534 L 786 536 L 783 538 L 780 538 L 767 544 L 759 550 L 751 559 L 750 555 L 760 545 L 769 539 L 774 537 L 774 534 L 776 532 L 790 530 L 795 531 L 796 533 Z M 236 503 L 337 861 L 359 879 L 390 880 L 630 828 L 816 783 L 835 774 L 807 792 L 399 886 L 356 887 L 341 876 L 329 852 Z M 773 503 L 778 520 L 777 525 L 774 519 L 771 505 Z M 794 489 L 799 488 L 805 491 L 809 495 L 807 496 L 802 492 L 797 491 Z M 785 491 L 782 493 L 775 493 L 766 496 L 754 502 L 747 507 L 739 515 L 739 509 L 743 505 L 750 502 L 761 494 L 764 493 L 764 491 L 766 489 L 775 487 L 776 488 L 782 489 Z M 759 460 L 762 465 L 766 479 L 765 483 L 763 481 L 761 475 L 759 464 L 758 463 Z M 780 446 L 785 445 L 792 448 L 796 455 L 788 449 Z M 780 450 L 759 452 L 751 455 L 740 461 L 734 466 L 728 473 L 727 470 L 728 468 L 737 460 L 749 452 L 749 449 L 755 446 L 764 444 L 771 449 Z M 720 423 L 721 425 L 718 428 L 718 424 Z M 747 417 L 749 419 L 752 429 L 753 436 L 754 437 L 751 439 L 747 427 L 747 423 L 745 419 Z M 1296 412 L 1368 633 L 1366 650 L 1356 663 L 1291 684 L 899 765 L 866 768 L 847 753 L 847 749 L 863 759 L 879 759 L 1257 681 L 1351 655 L 1361 642 L 1362 627 L 1295 423 Z M 1283 406 L 1285 408 L 1284 413 L 1279 416 L 1278 414 L 1283 410 L 1282 408 Z M 774 403 L 780 406 L 783 412 L 775 408 L 773 406 Z M 765 407 L 755 408 L 742 411 L 733 415 L 721 422 L 730 414 L 736 410 L 738 410 L 740 407 L 737 406 L 742 404 L 747 403 L 756 403 L 759 406 Z M 1298 381 L 1299 385 L 1297 386 L 1296 388 L 1295 385 Z M 733 376 L 737 376 L 738 382 L 741 389 L 741 393 L 742 394 L 741 398 L 738 393 Z M 761 362 L 764 361 L 768 363 L 772 367 L 771 371 L 770 368 L 768 366 L 763 364 Z M 751 364 L 732 368 L 720 373 L 712 379 L 704 388 L 704 383 L 709 378 L 720 370 L 728 366 L 731 362 L 739 359 L 740 362 L 749 362 Z M 725 333 L 725 336 L 728 343 L 730 351 L 729 355 L 727 353 L 724 340 L 722 336 Z M 746 319 L 749 318 L 750 319 L 755 320 L 760 325 L 759 328 L 758 326 L 754 323 Z M 737 322 L 724 324 L 713 328 L 701 335 L 694 342 L 693 340 L 702 331 L 716 323 L 719 319 L 725 317 L 728 320 L 732 320 Z M 1325 306 L 1326 315 L 1170 598 L 1169 593 L 1177 576 L 1181 575 L 1242 460 L 1220 491 L 1180 569 L 1174 574 L 1172 584 L 1166 589 L 1169 575 L 1289 357 L 1288 375 L 1292 367 L 1292 352 L 1314 312 L 1315 317 L 1306 338 L 1303 335 L 1302 343 L 1296 351 L 1296 360 Z M 1321 298 L 1322 301 L 1320 305 L 1318 313 L 1316 309 L 1316 307 Z M 160 298 L 162 313 L 163 314 L 162 317 L 160 314 L 159 307 L 158 306 L 158 303 Z M 182 291 L 186 313 L 193 335 L 194 343 L 199 362 L 202 369 L 204 381 L 209 395 L 220 442 L 226 461 L 229 476 L 231 480 L 230 484 L 227 477 L 223 459 L 206 402 L 188 330 L 186 327 L 185 320 L 182 313 L 180 301 Z M 711 290 L 713 293 L 717 306 L 715 311 L 710 295 Z M 1309 284 L 1319 293 L 1189 534 L 1163 577 L 1149 576 L 1142 570 L 1140 559 L 1292 282 L 1297 278 Z M 736 278 L 739 277 L 747 282 L 748 287 L 740 280 Z M 189 282 L 194 277 L 206 344 L 345 847 L 357 861 L 395 866 L 817 772 L 834 761 L 833 767 L 814 780 L 388 877 L 351 870 L 340 857 L 189 308 Z M 1327 276 L 1328 279 L 1326 282 L 1324 279 L 1326 278 Z M 1291 277 L 1138 556 L 1121 566 L 1118 563 L 1119 560 L 1110 559 L 1262 284 L 1271 276 Z M 724 281 L 719 281 L 699 287 L 691 292 L 680 304 L 677 304 L 678 300 L 680 299 L 683 295 L 694 287 L 700 284 L 703 280 L 709 276 L 719 277 Z M 1343 274 L 1345 276 L 1345 282 L 1343 285 L 1341 280 L 1341 277 Z M 167 290 L 188 274 L 173 315 L 326 882 L 354 907 L 813 808 L 845 785 L 890 795 L 1366 690 L 1382 652 L 1299 389 L 1389 673 L 1375 691 L 928 795 L 848 792 L 775 823 L 347 911 L 321 880 Z M 1340 269 L 1341 272 L 1340 274 L 1337 273 Z M 1273 269 L 1279 267 L 1289 267 L 1295 268 L 1300 271 L 1310 274 L 1319 281 L 1319 284 L 1309 277 L 1296 272 L 1282 270 L 1276 271 Z M 1348 265 L 1350 269 L 1349 272 L 1347 270 Z M 1272 262 L 1275 259 L 1281 257 L 1287 256 L 1295 256 L 1299 257 L 1313 263 L 1325 273 L 1325 276 L 1323 278 L 1321 278 L 1313 272 L 1307 269 L 1297 266 L 1295 264 Z M 1353 253 L 1355 256 L 1354 263 L 1353 258 L 1352 257 Z M 676 253 L 667 263 L 666 260 L 667 258 L 672 253 Z M 698 249 L 701 250 L 701 253 L 706 267 L 703 270 L 700 262 L 700 259 L 697 252 Z M 1278 251 L 1281 248 L 1287 246 L 1293 245 L 1306 246 L 1313 248 L 1324 253 L 1330 257 L 1334 262 L 1331 266 L 1322 259 L 1314 255 L 1301 251 L 1281 252 Z M 728 238 L 730 237 L 736 242 L 737 244 L 736 247 L 728 241 Z M 1300 236 L 1311 235 L 1316 236 L 1327 241 L 1333 247 L 1334 252 L 1337 255 L 1335 256 L 1332 253 L 1317 245 L 1312 243 L 1304 242 L 1302 240 L 1310 239 L 1311 240 L 1315 239 L 1312 239 L 1311 238 L 1302 239 Z M 717 239 L 705 240 L 691 244 L 685 247 L 683 249 L 679 249 L 684 244 L 690 241 L 691 239 L 695 236 L 705 235 L 708 237 Z M 1353 233 L 1355 237 L 1351 238 L 1351 235 Z M 1357 226 L 1358 230 L 1360 233 L 1358 235 L 1355 231 L 1355 228 Z M 1290 231 L 1295 227 L 1303 225 L 1319 225 L 1334 231 L 1339 234 L 1345 240 L 1344 242 L 1341 243 L 1334 238 L 1324 233 L 1321 233 L 1318 231 L 1314 230 L 1298 230 L 1293 232 Z M 1367 211 L 1370 217 L 1371 228 L 1368 236 L 1361 249 L 1359 251 L 1357 248 L 1357 245 L 1360 240 L 1361 235 L 1364 232 L 1362 231 L 1362 229 L 1365 226 L 1366 223 L 1359 226 L 1358 223 L 1364 211 Z M 688 209 L 692 219 L 693 226 L 694 227 L 693 230 L 690 225 L 686 213 L 686 211 Z M 714 198 L 716 197 L 720 199 L 724 203 L 723 206 Z M 702 199 L 696 201 L 692 201 L 684 203 L 676 206 L 665 213 L 657 222 L 654 222 L 654 220 L 656 217 L 662 211 L 678 202 L 683 197 L 687 196 L 694 196 L 699 197 Z M 1297 220 L 1309 198 L 1315 193 L 1321 191 L 1333 193 L 1331 195 L 1331 197 L 1333 197 L 1335 195 L 1336 192 L 1342 193 L 1354 199 L 1359 203 L 1362 207 L 1353 226 L 1351 228 L 1349 233 L 1347 234 L 1344 231 L 1336 226 L 1328 222 L 1324 221 L 1323 218 L 1326 213 L 1326 210 L 1323 212 L 1321 217 L 1318 220 L 1307 219 Z M 677 184 L 680 184 L 680 191 L 676 186 Z M 665 184 L 674 193 L 643 214 L 642 226 L 657 234 L 681 213 L 686 230 L 655 253 L 653 265 L 668 274 L 692 253 L 697 271 L 665 307 L 683 315 L 704 294 L 710 314 L 679 336 L 677 348 L 696 356 L 715 334 L 721 352 L 689 391 L 708 399 L 727 377 L 734 398 L 704 420 L 701 433 L 718 442 L 740 421 L 746 442 L 718 460 L 713 475 L 732 484 L 751 462 L 757 478 L 725 517 L 741 527 L 762 505 L 771 527 L 743 545 L 737 560 L 753 570 L 777 548 L 783 568 L 751 591 L 749 603 L 764 613 L 789 591 L 795 610 L 765 631 L 761 645 L 776 655 L 800 632 L 806 649 L 773 687 L 791 696 L 811 674 L 819 693 L 789 714 L 785 728 L 801 738 L 826 716 L 833 752 L 816 767 L 655 806 L 366 860 L 352 848 L 200 279 L 215 264 Z M 716 168 L 721 167 L 722 166 L 727 167 L 722 169 Z M 741 164 L 747 163 L 748 162 L 754 163 L 748 165 Z M 810 154 L 817 152 L 825 153 L 818 154 L 817 155 Z M 973 131 L 971 133 L 966 135 L 957 135 L 956 136 L 948 135 L 953 133 L 959 133 L 964 131 L 968 131 L 969 130 Z M 1041 121 L 1035 123 L 1023 124 L 1012 127 L 1005 127 L 988 131 L 982 130 L 998 126 L 1016 124 L 1021 122 L 1028 122 L 1035 120 Z M 1205 115 L 1211 122 L 1216 133 L 1217 139 L 1220 145 L 1227 167 L 1228 174 L 1256 256 L 1260 270 L 1259 276 L 1257 278 L 1253 269 L 1248 251 L 1239 226 L 1213 140 L 1210 134 L 1206 119 L 1204 117 Z M 1097 111 L 1095 113 L 1090 115 L 1085 114 L 1081 116 L 1074 116 L 1068 118 L 1053 119 L 1047 121 L 1040 120 L 1045 118 L 1058 117 L 1063 115 L 1081 112 L 1088 112 L 1093 110 Z M 1178 108 L 1247 300 L 1100 567 L 1086 666 L 1145 637 L 1131 638 L 1300 600 L 1137 635 L 1200 581 L 1287 563 L 1191 575 L 1224 542 L 1213 538 L 1276 524 L 1214 534 L 1242 510 L 1223 516 L 1247 497 L 1237 490 L 1264 481 L 1240 485 L 1267 463 L 1250 466 L 1286 414 L 1355 643 L 1243 679 L 861 753 L 840 710 L 872 720 L 880 700 L 834 692 L 827 671 L 861 678 L 868 660 L 820 649 L 814 629 L 849 635 L 856 617 L 810 609 L 802 587 L 833 594 L 844 577 L 796 565 L 790 544 L 824 551 L 832 535 L 785 523 L 779 507 L 811 508 L 820 493 L 771 480 L 765 459 L 799 466 L 808 451 L 759 437 L 753 417 L 788 423 L 795 406 L 747 395 L 742 379 L 777 380 L 783 364 L 732 343 L 730 330 L 760 339 L 771 322 L 723 310 L 718 294 L 752 297 L 759 280 L 711 268 L 705 250 L 739 256 L 748 241 L 699 227 L 695 207 L 726 217 L 735 199 L 687 183 Z M 1174 101 L 1182 100 L 1188 102 L 1193 107 L 1199 117 L 1233 229 L 1249 276 L 1248 280 L 1238 253 L 1234 238 L 1232 235 L 1232 232 L 1230 229 L 1220 193 L 1209 163 L 1200 132 L 1196 124 L 1195 117 L 1186 106 Z" fill="currentColor" stroke="currentColor" stroke-width="0.8" stroke-linecap="round" stroke-linejoin="round" fill-rule="evenodd"/>
</svg>