<svg xmlns="http://www.w3.org/2000/svg" width="1024" height="1024" viewBox="0 0 1024 1024">
  <path d="M 716 751 L 717 754 L 729 754 L 730 750 Z M 744 750 L 745 754 L 812 754 L 814 752 L 814 750 L 810 747 L 751 748 Z M 753 740 L 752 737 L 748 736 L 733 737 L 731 738 L 730 741 L 737 743 L 742 743 Z M 769 736 L 769 740 L 772 740 L 773 741 L 804 741 L 806 740 L 805 735 L 772 735 L 771 736 Z M 193 735 L 191 733 L 185 733 L 168 736 L 158 736 L 154 738 L 155 741 L 169 741 L 188 739 L 191 738 Z M 850 717 L 851 722 L 859 732 L 862 732 L 863 729 L 859 723 L 853 717 Z M 852 698 L 852 702 L 865 720 L 870 720 L 869 716 L 858 701 L 855 698 Z M 851 676 L 871 706 L 875 706 L 875 702 L 861 681 L 856 675 Z M 203 644 L 201 644 L 196 649 L 193 654 L 193 657 L 196 657 L 198 655 L 203 647 Z M 204 618 L 202 618 L 197 623 L 184 642 L 177 654 L 178 658 L 180 658 L 182 656 L 192 640 L 197 634 L 202 624 L 204 622 Z M 210 584 L 208 584 L 200 592 L 186 611 L 182 618 L 176 625 L 175 628 L 172 631 L 155 659 L 155 663 L 160 662 L 170 648 L 173 642 L 209 590 Z M 333 394 L 328 398 L 328 399 L 323 404 L 300 439 L 284 466 L 283 470 L 284 472 L 287 472 L 290 469 L 292 464 L 304 447 L 308 439 L 314 431 L 334 398 Z M 542 284 L 538 286 L 525 304 L 517 319 L 503 341 L 503 346 L 505 346 L 509 342 L 525 318 L 527 313 L 531 308 L 541 291 L 543 286 Z M 595 259 L 595 262 L 600 270 L 603 270 L 603 267 L 599 260 Z M 568 240 L 568 243 L 576 255 L 580 259 L 582 259 L 582 255 L 575 244 L 570 239 Z M 566 209 L 566 213 L 583 243 L 589 251 L 592 251 L 592 247 L 579 223 L 571 211 L 569 209 Z M 485 165 L 483 165 L 476 173 L 461 196 L 455 208 L 457 212 L 460 209 L 471 191 L 476 185 L 481 175 L 485 170 Z M 105 682 L 116 716 L 156 786 L 353 779 L 850 781 L 903 697 L 741 446 L 562 150 L 542 143 L 481 144 L 456 152 L 252 473 Z M 629 595 L 490 598 L 392 598 L 366 595 L 455 467 L 506 388 L 509 388 L 607 561 Z M 832 762 L 164 769 L 161 756 L 243 746 L 153 750 L 127 694 L 693 682 L 689 660 L 517 377 L 522 369 L 538 388 L 525 360 L 535 345 L 557 374 L 539 338 L 546 329 L 568 358 L 550 320 L 555 312 Z M 553 167 L 743 481 L 884 695 L 850 757 L 556 293 L 348 594 L 334 596 L 368 534 L 325 597 L 318 595 L 333 564 L 311 595 L 301 596 L 335 543 L 295 594 L 286 596 Z M 544 159 L 265 604 L 271 611 L 640 615 L 645 622 L 607 629 L 650 631 L 653 638 L 590 648 L 661 647 L 664 652 L 629 660 L 673 666 L 127 680 L 274 467 L 465 164 Z" fill="currentColor" stroke="currentColor" stroke-width="0.8" stroke-linecap="round" stroke-linejoin="round" fill-rule="evenodd"/>
</svg>