<svg xmlns="http://www.w3.org/2000/svg" width="1365" height="1024" viewBox="0 0 1365 1024">
  <title>ChatGPT Image Mar 25, 2026, 12_19_00 PM.png</title>
  <defs>
    <filter id="thicken" x="-2%" y="-2%" width="104%" height="104%">
      <feMorphology in="SourceGraphic" operator="dilate" radius="0.9" />
    </filter>
    <linearGradient id="inkSage" x1="0%" y1="0%" x2="100%" y2="100%">
      <stop offset="0%" stop-color="#2A2018" />
      <stop offset="72%" stop-color="#2A2018" />
      <stop offset="100%" stop-color="#4A6741" />
    </linearGradient>
  </defs>
  <rect width="100%" height="100%" fill="#faf8f1"/>
  <path d="M 587 818 L 584 817 L 579 817 L 576 818 L 574 820 L 572 820 L 565 827 L 559 837 L 557 844 L 557 855 L 559 860 L 564 865 L 567 866 L 573 866 L 580 863 L 589 854 L 589 852 L 591 850 L 592 846 L 594 844 L 595 840 L 595 828 L 592 822 Z M 582 831 L 583 833 L 583 839 L 580 846 L 574 852 L 571 853 L 568 850 L 569 843 L 577 831 L 579 830 Z M 408 665 L 403 667 L 400 670 L 399 672 L 399 679 L 401 682 L 404 684 L 407 685 L 413 685 L 416 684 L 420 680 L 421 673 L 420 670 L 417 667 L 412 665 Z M 453 638 L 448 644 L 448 649 L 450 653 L 454 656 L 457 657 L 465 656 L 470 650 L 470 644 L 469 642 L 465 638 L 462 637 L 455 637 Z M 362 631 L 360 635 L 360 641 L 363 645 L 369 648 L 374 648 L 379 646 L 382 642 L 382 635 L 381 632 L 379 630 L 375 628 L 368 628 Z M 409 602 L 409 604 L 407 606 L 407 610 L 409 614 L 412 617 L 415 618 L 423 618 L 429 613 L 430 607 L 428 603 L 425 600 L 422 599 L 414 599 Z M 1038 526 L 1035 525 L 1030 525 L 1024 528 L 1019 533 L 1012 546 L 1011 550 L 1011 561 L 1013 566 L 1018 571 L 1021 572 L 1027 572 L 1030 571 L 1037 565 L 1042 558 L 1046 545 L 1046 539 L 1043 531 Z M 1034 539 L 1035 544 L 1033 547 L 1031 554 L 1026 559 L 1022 558 L 1022 551 L 1027 541 L 1031 538 Z M 807 354 L 797 350 L 699 359 L 574 467 L 577 477 L 629 480 L 550 584 L 550 592 L 553 595 L 563 594 L 766 453 L 766 445 L 763 442 L 718 440 L 805 364 Z M 780 367 L 690 446 L 690 451 L 695 455 L 733 455 L 736 457 L 613 543 L 590 555 L 650 475 L 650 470 L 645 465 L 607 465 L 599 463 L 702 373 L 755 367 Z M 1119 326 L 1069 376 L 765 605 L 665 675 L 551 741 L 561 748 L 558 752 L 631 714 L 710 663 L 1089 379 L 1125 339 L 1118 331 Z M 911 329 L 910 331 L 910 338 L 915 343 L 918 344 L 923 344 L 926 343 L 930 340 L 932 336 L 932 332 L 927 326 L 924 325 L 916 325 Z M 956 295 L 952 300 L 952 307 L 957 312 L 960 313 L 966 313 L 969 312 L 973 308 L 974 305 L 974 301 L 973 299 L 969 295 L 963 293 L 960 293 Z M 878 291 L 875 292 L 871 296 L 870 298 L 870 304 L 874 309 L 878 311 L 883 311 L 886 310 L 890 307 L 892 302 L 891 297 L 886 292 L 883 291 Z M 909 267 L 909 270 L 911 275 L 916 279 L 924 279 L 928 277 L 931 273 L 931 266 L 930 264 L 927 261 L 924 260 L 916 260 L 913 262 Z M 1144 193 L 1092 143 L 1021 122 L 948 128 L 864 163 L 410 470 L 213 588 L 184 621 L 168 659 L 165 699 L 179 746 L 213 787 L 274 822 L 362 839 L 447 829 L 484 851 L 496 883 L 548 909 L 586 900 L 614 873 L 632 827 L 622 790 L 594 772 L 703 708 L 915 550 L 942 564 L 957 594 L 1001 614 L 1024 613 L 1058 586 L 1075 552 L 1076 513 L 1061 489 L 1025 470 L 1117 395 L 1155 335 L 1165 251 Z M 492 818 L 488 827 L 488 831 L 487 833 L 485 834 L 479 830 L 477 830 L 469 824 L 486 818 Z M 534 814 L 531 820 L 528 823 L 526 828 L 521 846 L 520 853 L 520 868 L 523 880 L 522 883 L 509 875 L 506 872 L 504 868 L 501 857 L 501 843 L 503 832 L 506 823 L 509 821 L 514 820 L 529 813 Z M 600 792 L 606 796 L 610 801 L 613 807 L 616 822 L 613 841 L 609 850 L 607 852 L 606 856 L 601 864 L 591 876 L 582 884 L 576 888 L 563 893 L 555 893 L 548 890 L 540 881 L 540 879 L 537 875 L 536 870 L 535 854 L 538 841 L 542 832 L 542 829 L 554 811 L 570 796 L 578 792 L 585 790 L 592 790 Z M 946 529 L 944 533 L 943 542 L 941 547 L 930 542 L 928 540 L 937 533 Z M 1046 499 L 1056 506 L 1057 509 L 1060 513 L 1062 519 L 1063 539 L 1059 553 L 1050 571 L 1036 588 L 1023 597 L 1017 599 L 1010 599 L 1006 598 L 998 592 L 995 588 L 992 580 L 990 562 L 993 546 L 998 534 L 1000 532 L 1000 530 L 1004 525 L 1006 520 L 1019 506 L 1025 502 L 1032 499 L 1036 498 Z M 1016 482 L 1018 484 L 1024 486 L 1019 490 L 1011 494 L 1000 504 L 989 519 L 982 533 L 981 539 L 979 542 L 976 558 L 976 576 L 979 590 L 962 580 L 956 565 L 956 552 L 959 536 L 961 534 L 961 530 L 971 511 L 973 509 L 1012 481 Z M 1131 203 L 1142 258 L 1122 319 L 1134 325 L 1146 309 L 1099 391 L 759 649 L 617 742 L 473 807 L 356 824 L 249 794 L 194 741 L 268 788 L 337 806 L 439 799 L 545 760 L 542 745 L 398 791 L 296 782 L 242 758 L 204 726 L 187 696 L 186 654 L 204 618 L 233 591 L 416 483 L 895 163 L 968 139 L 1034 138 L 1088 158 Z" fill="url(#inkSage)" fill-rule="evenodd" filter="url(#thicken)"/>
</svg>
